<svg xmlns="http://www.w3.org/2000/svg" xmlns:xlink="http://www.w3.org/1999/xlink" version="1.1" style="shape-rendering:geometricPrecision; text-rendering:geometricPrecision; image-rendering:optimizeQuality; fill-rule:evenodd; clip-rule:evenodd" viewBox="2.94 6.61 189.58 153.89">
<g><path style="opacity:0.243" fill="#f3f0f1" d="M 130.5,9.5 C 129.5,9.5 128.5,9.5 127.5,9.5C 126.833,9.5 126.167,9.5 125.5,9.5C 117.659,8.49884 109.659,8.49884 101.5,9.5C 100.726,8.85287 99.7261,8.51954 98.5,8.5C 89.2912,9.68359 80.2912,11.6836 71.5,14.5C 77.712,11.2634 84.3787,9.09673 91.5,8C 103.507,6.15281 115.507,6.15281 127.5,8C 128.737,8.23209 129.737,8.73209 130.5,9.5 Z"/></g>
<g><path style="opacity:1" fill="#746061" d="M 125.5,9.5 C 126.167,9.5 126.833,9.5 127.5,9.5C 128.429,10.3149 129.429,11.1482 130.5,12C 134.297,12.4087 137.964,13.2421 141.5,14.5C 142.167,14.5 142.5,14.8333 142.5,15.5C 133.113,14.3432 123.78,13.6766 114.5,13.5C 112.866,12.8389 111.033,12.5056 109,12.5C 102.163,13.2042 95.33,13.8708 88.5,14.5C 93.8294,12.7841 99.1627,11.6175 104.5,11C 110.373,10.2321 116.206,10.3987 122,11.5C 123.459,11.1918 124.626,10.5251 125.5,9.5 Z"/></g>
<g><path style="opacity:1" fill="#c1b0b1" d="M 127.5,9.5 C 128.5,9.5 129.5,9.5 130.5,9.5C 133.067,9.72148 135.401,10.3882 137.5,11.5C 138.833,12.5 140.167,13.5 141.5,14.5C 137.964,13.2421 134.297,12.4087 130.5,12C 129.429,11.1482 128.429,10.3149 127.5,9.5 Z"/></g>
<g><path style="opacity:1" fill="#a7969b" d="M 125.5,9.5 C 124.626,10.5251 123.459,11.1918 122,11.5C 116.206,10.3987 110.373,10.2321 104.5,11C 99.1627,11.6175 93.8294,12.7841 88.5,14.5C 85.1667,14.8333 81.8333,15.1667 78.5,15.5C 79.347,14.0337 80.6803,13.2004 82.5,13C 88.8644,11.9137 95.1977,10.7471 101.5,9.5C 109.659,8.49884 117.659,8.49884 125.5,9.5 Z"/></g>
<g><path style="opacity:1" fill="#a28a89" d="M 143.5,15.5 C 146.686,15.6129 149.353,16.7795 151.5,19C 151.361,20.301 150.695,21.1344 149.5,21.5C 148.64,19.3862 146.973,18.2195 144.5,18C 143.748,17.3292 143.414,16.4959 143.5,15.5 Z"/></g>
<g><path style="opacity:1" fill="#e2dadf" d="M 101.5,9.5 C 95.1977,10.7471 88.8644,11.9137 82.5,13C 80.6803,13.2004 79.347,14.0337 78.5,15.5C 78.1667,15.5 77.8333,15.5 77.5,15.5C 75.8333,15.5 74.1667,15.5 72.5,15.5C 72.5,17.1667 72.5,18.8333 72.5,20.5C 68.1383,22.1571 63.6383,23.4905 59,24.5C 55.5679,24.6702 52.4012,24.0036 49.5,22.5C 49.6107,21.8826 49.944,21.3826 50.5,21C 57.4842,18.6725 64.4842,16.5058 71.5,14.5C 80.2912,11.6836 89.2912,9.68359 98.5,8.5C 99.7261,8.51954 100.726,8.85287 101.5,9.5 Z"/></g>
<g><path style="opacity:1" fill="#4d3b3a" d="M 114.5,13.5 C 123.78,13.6766 133.113,14.3432 142.5,15.5C 142.833,15.5 143.167,15.5 143.5,15.5C 143.414,16.4959 143.748,17.3292 144.5,18C 146.973,18.2195 148.64,19.3862 149.5,21.5C 148.333,23.0414 147,24.3748 145.5,25.5C 145.279,21.7838 143.446,19.1171 140,17.5C 139.228,17.6448 138.561,17.9781 138,18.5C 132.603,16.0575 127.103,15.8908 121.5,18C 119.963,19.1096 119.297,20.6096 119.5,22.5C 120.93,22.4208 122.264,22.7542 123.5,23.5C 124.192,22.9747 124.692,22.3081 125,21.5C 125.353,23.0739 126.02,24.7406 127,26.5C 127.333,26.1667 127.667,25.8333 128,25.5C 128.813,27.4357 129.313,29.4357 129.5,31.5C 131.167,31.5 132.833,31.5 134.5,31.5C 132.773,33.7572 130.44,35.0905 127.5,35.5C 122.582,34.9258 117.749,33.9258 113,32.5C 109.389,32.9448 107.222,34.9448 106.5,38.5C 104.801,38.6602 103.134,38.4935 101.5,38C 103.937,36.2862 106.27,34.4529 108.5,32.5C 102.378,31.7242 96.3783,31.7242 90.5,32.5C 90.634,34.2915 90.3007,35.9582 89.5,37.5C 88.5041,37.5858 87.6708,37.2524 87,36.5C 86.2496,37.1258 85.4162,37.6258 84.5,38C 84.0879,39.5639 83.7546,41.0639 83.5,42.5C 82.2921,43.2341 80.9587,43.5674 79.5,43.5C 79.3167,41.0122 78.3167,39.0122 76.5,37.5C 78.9424,37.6463 79.6091,36.813 78.5,35C 79.5,34.5 80.5,34 81.5,33.5C 82.4255,34.6405 83.2588,34.6405 84,33.5C 84.3333,34.1667 84.6667,34.8333 85,35.5C 86.3515,33.4062 86.8515,31.0728 86.5,28.5C 87.7024,27.5946 89.0357,27.5946 90.5,28.5C 90.4701,29.4972 90.9701,30.1639 92,30.5C 93.9613,29.1034 96.1279,28.1034 98.5,27.5C 100.443,28.6892 102.443,29.6892 104.5,30.5C 108.319,30.5503 111.653,29.3836 114.5,27C 114,26.5 113.5,26 113,25.5C 111.817,26.731 110.651,26.731 109.5,25.5C 110.025,24.8076 110.692,24.3076 111.5,24C 110.359,23.2588 110.359,22.4255 111.5,21.5C 112.729,20.7189 114.062,20.2189 115.5,20C 111.499,18.007 107.499,16.8403 103.5,16.5C 106.627,13.945 110.294,12.945 114.5,13.5 Z"/></g>
<g><path style="opacity:1" fill="#3d2c2c" d="M 104.5,30.5 C 102.443,29.6892 100.443,28.6892 98.5,27.5C 96.1279,28.1034 93.9613,29.1034 92,30.5C 90.9701,30.1639 90.4701,29.4972 90.5,28.5C 89.5381,26.547 89.2047,24.7137 89.5,23C 91.8776,22.0255 91.5443,21.3589 88.5,21C 89.8176,20.3058 90.6509,19.4725 91,18.5C 92.0105,18.8919 92.5105,19.5585 92.5,20.5C 94.1667,19.8333 95.8333,19.1667 97.5,18.5C 98.1924,19.0253 98.6924,19.6919 99,20.5C 101.797,16.7764 103.964,16.943 105.5,21C 104.435,22.6292 103.101,23.7958 101.5,24.5C 100.808,23.9747 100.308,23.3081 100,22.5C 99.51,23.7932 99.3433,25.1266 99.5,26.5C 100.93,26.4208 102.264,26.7542 103.5,27.5C 104.192,26.9747 104.692,26.3081 105,25.5C 105.384,27.1966 105.218,28.8632 104.5,30.5 Z"/></g>
<g><path style="opacity:1" fill="#605053" d="M 114.5,13.5 C 110.294,12.945 106.627,13.945 103.5,16.5C 97.5451,17.3635 91.5451,17.6968 85.5,17.5C 81.6338,18.7348 80.3005,21.2348 81.5,25C 80.451,25.4922 79.451,25.3256 78.5,24.5C 77.0042,27.175 77.6708,29.175 80.5,30.5C 79.2243,31.6446 77.891,31.6446 76.5,30.5C 74.9471,31.8688 74.2804,33.2022 74.5,34.5C 71.8068,33.1534 69.1401,31.8201 66.5,30.5C 66.5,30.1667 66.5,29.8333 66.5,29.5C 68.7659,29.8588 70.5993,29.1922 72,27.5C 72.3333,27.8333 72.6667,28.1667 73,28.5C 74.1667,26 76,24.1667 78.5,23C 77.9221,21.583 76.9221,20.7496 75.5,20.5C 74.1938,19.5326 73.5271,18.1993 73.5,16.5C 75.099,16.7678 76.4324,16.4345 77.5,15.5C 77.8333,15.5 78.1667,15.5 78.5,15.5C 81.8333,15.1667 85.1667,14.8333 88.5,14.5C 95.33,13.8708 102.163,13.2042 109,12.5C 111.033,12.5056 112.866,12.8389 114.5,13.5 Z"/></g>
<g><path style="opacity:1" fill="#4d3c3c" d="M 85.5,17.5 C 82.7955,19.8598 82.2955,22.5265 84,25.5C 84.6543,24.3044 85.1543,24.3044 85.5,25.5C 83.9084,27.2249 84.2417,28.2249 86.5,28.5C 86.8515,31.0728 86.3515,33.4062 85,35.5C 84.6667,34.8333 84.3333,34.1667 84,33.5C 83.2588,34.6405 82.4255,34.6405 81.5,33.5C 80.5,34 79.5,34.5 78.5,35C 79.6091,36.813 78.9424,37.6463 76.5,37.5C 76.2178,36.2223 75.5511,35.2223 74.5,34.5C 74.2804,33.2022 74.9471,31.8688 76.5,30.5C 77.891,31.6446 79.2243,31.6446 80.5,30.5C 77.6708,29.175 77.0042,27.175 78.5,24.5C 79.451,25.3256 80.451,25.4922 81.5,25C 80.3005,21.2348 81.6338,18.7348 85.5,17.5 Z"/></g>
<g><path style="opacity:1" fill="#433232" d="M 103.5,16.5 C 107.499,16.8403 111.499,18.007 115.5,20C 114.062,20.2189 112.729,20.7189 111.5,21.5C 110.359,22.4255 110.359,23.2588 111.5,24C 110.692,24.3076 110.025,24.8076 109.5,25.5C 110.651,26.731 111.817,26.731 113,25.5C 113.5,26 114,26.5 114.5,27C 111.653,29.3836 108.319,30.5503 104.5,30.5C 105.218,28.8632 105.384,27.1966 105,25.5C 104.692,26.3081 104.192,26.9747 103.5,27.5C 102.264,26.7542 100.93,26.4208 99.5,26.5C 99.3433,25.1266 99.51,23.7932 100,22.5C 100.308,23.3081 100.808,23.9747 101.5,24.5C 103.101,23.7958 104.435,22.6292 105.5,21C 103.964,16.943 101.797,16.7764 99,20.5C 98.6924,19.6919 98.1924,19.0253 97.5,18.5C 95.8333,19.1667 94.1667,19.8333 92.5,20.5C 92.5105,19.5585 92.0105,18.8919 91,18.5C 90.6509,19.4725 89.8176,20.3058 88.5,21C 91.5443,21.3589 91.8776,22.0255 89.5,23C 89.2047,24.7137 89.5381,26.547 90.5,28.5C 89.0357,27.5946 87.7024,27.5946 86.5,28.5C 84.2417,28.2249 83.9084,27.2249 85.5,25.5C 85.1543,24.3044 84.6543,24.3044 84,25.5C 82.2955,22.5265 82.7955,19.8598 85.5,17.5C 91.5451,17.6968 97.5451,17.3635 103.5,16.5 Z"/></g>
<g><path style="opacity:1" fill="#dacfd3" d="M 137.5,11.5 C 150.799,15.9293 163.799,20.9293 176.5,26.5C 174.833,26.5 173.167,26.5 171.5,26.5C 171.915,28.9477 170.915,30.2811 168.5,30.5C 166.71,29.2137 165.043,27.7137 163.5,26C 162.216,25.3162 161.049,25.4829 160,26.5C 156.459,24.5427 152.959,22.876 149.5,21.5C 150.695,21.1344 151.361,20.301 151.5,19C 149.353,16.7795 146.686,15.6129 143.5,15.5C 143.167,15.5 142.833,15.5 142.5,15.5C 142.5,14.8333 142.167,14.5 141.5,14.5C 140.167,13.5 138.833,12.5 137.5,11.5 Z"/></g>
<g><path style="opacity:1" fill="#432f2c" d="M 145.5,25.5 C 141.949,27.7745 138.282,29.7745 134.5,31.5C 132.833,31.5 131.167,31.5 129.5,31.5C 129.313,29.4357 128.813,27.4357 128,25.5C 127.667,25.8333 127.333,26.1667 127,26.5C 126.02,24.7406 125.353,23.0739 125,21.5C 124.692,22.3081 124.192,22.9747 123.5,23.5C 122.264,22.7542 120.93,22.4208 119.5,22.5C 119.297,20.6096 119.963,19.1096 121.5,18C 127.103,15.8908 132.603,16.0575 138,18.5C 138.561,17.9781 139.228,17.6448 140,17.5C 143.446,19.1171 145.279,21.7838 145.5,25.5 Z"/></g>
<g><path style="opacity:1" fill="#c6bbc2" d="M 77.5,15.5 C 76.4324,16.4345 75.099,16.7678 73.5,16.5C 73.5271,18.1993 74.1938,19.5326 75.5,20.5C 72.2746,21.0984 69.2746,22.4317 66.5,24.5C 61.5329,25.329 56.5329,25.829 51.5,26C 49.261,28.8148 47.5943,31.9815 46.5,35.5C 45.0755,33.9689 44.4088,34.3023 44.5,36.5C 40.8284,36.8174 39.1617,35.1507 39.5,31.5C 41.5622,27.1053 44.8955,24.1053 49.5,22.5C 52.4012,24.0036 55.5679,24.6702 59,24.5C 63.6383,23.4905 68.1383,22.1571 72.5,20.5C 72.5,18.8333 72.5,17.1667 72.5,15.5C 74.1667,15.5 75.8333,15.5 77.5,15.5 Z"/></g>
<g><path style="opacity:1" fill="#877981" d="M 75.5,20.5 C 76.9221,20.7496 77.9221,21.583 78.5,23C 76,24.1667 74.1667,26 73,28.5C 72.6667,28.1667 72.3333,27.8333 72,27.5C 70.5993,29.1922 68.7659,29.8588 66.5,29.5C 66.0472,28.5416 65.3805,27.7083 64.5,27C 61.1177,26.1764 57.7844,26.343 54.5,27.5C 53.2532,29.0421 53.2532,30.5421 54.5,32C 52.271,33.4847 49.9377,34.818 47.5,36C 48.2524,36.6708 48.5858,37.5041 48.5,38.5C 47.0937,38.0269 46.427,37.0269 46.5,35.5C 47.5943,31.9815 49.261,28.8148 51.5,26C 56.5329,25.829 61.5329,25.329 66.5,24.5C 69.2746,22.4317 72.2746,21.0984 75.5,20.5 Z"/></g>
<g><path style="opacity:1" fill="#ac9ca1" d="M 149.5,21.5 C 152.959,22.876 156.459,24.5427 160,26.5C 161.049,25.4829 162.216,25.3162 163.5,26C 165.043,27.7137 166.71,29.2137 168.5,30.5C 170.915,30.2811 171.915,28.9477 171.5,26.5C 173.167,26.5 174.833,26.5 176.5,26.5C 179.5,27.5 181.5,29.5 182.5,32.5C 180.833,31.1667 179.167,31.1667 177.5,32.5C 179.29,30.091 178.79,28.4243 176,27.5C 173.775,28.9389 171.775,30.6055 170,32.5C 166.305,32.6926 162.472,33.1926 158.5,34C 159.056,34.3826 159.389,34.8826 159.5,35.5C 158.417,35.5394 157.417,35.8728 156.5,36.5C 155.561,38.0534 154.394,39.3867 153,40.5C 151.85,41.4239 150.85,41.4239 150,40.5C 148.913,42.9316 148.413,42.5983 148.5,39.5C 152.071,39.5923 153.238,37.9257 152,34.5C 150.601,33.7734 149.101,33.2734 147.5,33C 149.838,30.8896 149.671,28.7229 147,26.5C 146.329,27.2524 145.496,27.5858 144.5,27.5C 144.833,26.8333 145.167,26.1667 145.5,25.5C 147,24.3748 148.333,23.0414 149.5,21.5 Z"/></g>
<g><path style="opacity:1" fill="#362626" d="M 66.5,30.5 C 69.1401,31.8201 71.8068,33.1534 74.5,34.5C 75.5511,35.2223 76.2178,36.2223 76.5,37.5C 78.3167,39.0122 79.3167,41.0122 79.5,43.5C 74.539,44.3134 70.2056,43.1467 66.5,40C 64.8333,39.6667 63.1667,39.3333 61.5,39C 61.8333,38.6667 62.1667,38.3333 62.5,38C 60.2177,35.6026 58.8844,32.7693 58.5,29.5C 61.1667,29.8333 63.8333,30.1667 66.5,30.5 Z"/></g>
<g><path style="opacity:1" fill="#614c4b" d="M 106.5,38.5 C 105.064,41.5622 103.064,44.2289 100.5,46.5C 98.5168,47.4706 96.5168,48.4706 94.5,49.5C 93.8106,48.2264 92.9772,48.2264 92,49.5C 90.8603,46.4718 91.6936,44.3051 94.5,43C 93.8333,42.6667 93.1667,42.3333 92.5,42C 93.6216,39.963 95.2883,37.7963 97.5,35.5C 96.8333,35.1667 96.1667,34.8333 95.5,34.5C 93.4893,35.5186 91.4893,36.5186 89.5,37.5C 90.3007,35.9582 90.634,34.2915 90.5,32.5C 96.3783,31.7242 102.378,31.7242 108.5,32.5C 106.27,34.4529 103.937,36.2862 101.5,38C 103.134,38.4935 104.801,38.6602 106.5,38.5 Z"/></g>
<g><path style="opacity:1" fill="#a08e93" d="M 177.5,32.5 C 176.279,31.9717 175.113,31.305 174,30.5C 171.928,33.2066 172.428,35.3732 175.5,37C 174.944,37.3826 174.611,37.8826 174.5,38.5C 173.85,38.1961 173.183,37.8627 172.5,37.5C 172.167,38.1667 171.833,38.8333 171.5,39.5C 169.322,36.9621 167.322,36.9621 165.5,39.5C 163.089,39.1367 161.589,40.1367 161,42.5C 159.601,41.7734 158.101,41.2734 156.5,41C 158.677,39.8139 159.677,37.9806 159.5,35.5C 159.389,34.8826 159.056,34.3826 158.5,34C 162.472,33.1926 166.305,32.6926 170,32.5C 171.775,30.6055 173.775,28.9389 176,27.5C 178.79,28.4243 179.29,30.091 177.5,32.5 Z"/></g>
<g><path style="opacity:0.859" fill="#d2c4bd" d="M 182.5,32.5 C 183.79,33.0577 184.623,34.0577 185,35.5C 186.809,40.3589 187.976,45.3589 188.5,50.5C 187.21,49.9423 186.377,48.9423 186,47.5C 185.548,42.3157 184.381,37.3157 182.5,32.5 Z"/></g>
<g><path style="opacity:1" fill="#715b59" d="M 145.5,25.5 C 145.167,26.1667 144.833,26.8333 144.5,27.5C 143.147,29.1827 141.48,30.5161 139.5,31.5C 136.206,32.4664 133.872,34.4664 132.5,37.5C 128.397,36.2131 124.564,36.2131 121,37.5C 120.517,38.448 120.351,39.448 120.5,40.5C 121.833,40.5 123.167,40.5 124.5,40.5C 124.756,42.9124 123.756,44.5791 121.5,45.5C 118.813,44.7048 116.146,44.0381 113.5,43.5C 111.5,44 109.5,44.5 107.5,45C 108.416,45.2784 109.082,45.7784 109.5,46.5C 108.5,46.5 107.5,46.5 106.5,46.5C 104.389,47.3799 102.389,47.3799 100.5,46.5C 103.064,44.2289 105.064,41.5622 106.5,38.5C 107.222,34.9448 109.389,32.9448 113,32.5C 117.749,33.9258 122.582,34.9258 127.5,35.5C 130.44,35.0905 132.773,33.7572 134.5,31.5C 138.282,29.7745 141.949,27.7745 145.5,25.5 Z"/></g>
<g><path style="opacity:1" fill="#a48e8f" d="M 139.5,31.5 C 139.196,32.1499 138.863,32.8165 138.5,33.5C 141.105,34.4721 143.105,36.1388 144.5,38.5C 144.192,39.3081 143.692,39.9747 143,40.5C 142.282,39.5494 141.449,39.3828 140.5,40C 141.774,40.9772 141.774,41.8106 140.5,42.5C 138.484,44.0133 136.151,44.8466 133.5,45C 136.167,45.6667 136.167,46.3333 133.5,47C 136.145,48.2865 137.145,50.4532 136.5,53.5C 135.833,53.5 135.167,53.5 134.5,53.5C 132.078,51.4701 129.245,49.8034 126,48.5C 122.828,48.1438 119.662,48.8104 116.5,50.5C 114.459,49.7643 112.459,48.9309 110.5,48C 111.056,47.6174 111.389,47.1174 111.5,46.5C 116.893,47.3135 122.226,47.4802 127.5,47C 128.833,46 128.833,45 127.5,44C 128.126,43.2496 128.626,42.4162 129,41.5C 130.364,42.2583 131.531,41.7583 132.5,40C 131.402,39.2303 131.402,38.397 132.5,37.5C 133.872,34.4664 136.206,32.4664 139.5,31.5 Z"/></g>
<g><path style="opacity:1" fill="#e0d8dc" d="M 39.5,31.5 C 39.1617,35.1507 40.8284,36.8174 44.5,36.5C 44.4251,39.1698 44.7584,42.0031 45.5,45C 46.9319,47.2756 48.5985,49.4422 50.5,51.5C 48.604,52.4656 46.604,52.7989 44.5,52.5C 41.9111,53.4379 39.4111,53.7712 37,53.5C 36.0985,48.0425 36.9319,42.8759 39.5,38C 39.1667,37.5 38.8333,37 38.5,36.5C 37.0788,39.6793 35.4122,42.6793 33.5,45.5C 32.7784,45.9175 32.2784,46.5842 32,47.5C 31.5014,51.1516 31.3347,54.8183 31.5,58.5C 28.9558,59.7079 27.6225,61.7079 27.5,64.5C 26.2518,61.2879 27.2518,58.6213 30.5,56.5C 29.2255,53.1266 29.3921,49.7932 31,46.5C 34.381,41.73 37.2143,36.73 39.5,31.5 Z"/></g>
<g><path style="opacity:1" fill="#4c3a3a" d="M 66.5,29.5 C 66.5,29.8333 66.5,30.1667 66.5,30.5C 63.8333,30.1667 61.1667,29.8333 58.5,29.5C 58.8844,32.7693 60.2177,35.6026 62.5,38C 62.1667,38.3333 61.8333,38.6667 61.5,39C 63.1667,39.3333 64.8333,39.6667 66.5,40C 70.2056,43.1467 74.539,44.3134 79.5,43.5C 75.3075,46.0994 70.9742,46.0994 66.5,43.5C 64.2895,44.1228 62.2895,45.1228 60.5,46.5C 58.1889,45.7865 56.0223,44.7865 54,43.5C 53.6964,41.5595 52.8631,39.8928 51.5,38.5C 52.7433,38.7825 53.91,38.1159 55,36.5C 56.2613,36.7591 57.2613,37.4258 58,38.5C 58.2521,36.0687 57.7521,33.7354 56.5,31.5C 56.8333,30.8333 57.1667,30.1667 57.5,29.5C 60.4977,28.3565 63.4977,28.3565 66.5,29.5 Z"/></g>
<g><path style="opacity:1" fill="#c0b1b6" d="M 174.5,38.5 C 175.167,39.5 175.833,40.5 176.5,41.5C 175.698,42.9516 175.198,44.6183 175,46.5C 173.185,47.2444 171.352,47.9111 169.5,48.5C 166.143,48.8942 163.81,47.5609 162.5,44.5C 161.212,47.5331 159.379,49.5331 157,50.5C 155.322,48.4468 153.489,48.1134 151.5,49.5C 147.191,49.7526 143.691,48.7526 141,46.5C 137.191,47.7652 136.691,49.7652 139.5,52.5C 138.675,53.3857 137.675,53.719 136.5,53.5C 137.145,50.4532 136.145,48.2865 133.5,47C 136.167,46.3333 136.167,45.6667 133.5,45C 136.151,44.8466 138.484,44.0133 140.5,42.5C 141.263,43.2679 142.263,43.7679 143.5,44C 141.405,44.5556 141.238,45.0556 143,45.5C 144.559,44.9706 146.059,44.304 147.5,43.5C 150.889,45.4895 154.556,45.9895 158.5,45C 161.179,43.2357 163.846,41.569 166.5,40C 166.272,39.6012 165.938,39.4346 165.5,39.5C 167.322,36.9621 169.322,36.9621 171.5,39.5C 171.833,38.8333 172.167,38.1667 172.5,37.5C 173.183,37.8627 173.85,38.1961 174.5,38.5 Z"/></g>
<g><path style="opacity:1" fill="#b3a2a7" d="M 159.5,35.5 C 159.677,37.9806 158.677,39.8139 156.5,41C 158.101,41.2734 159.601,41.7734 161,42.5C 161.589,40.1367 163.089,39.1367 165.5,39.5C 165.938,39.4346 166.272,39.6012 166.5,40C 163.846,41.569 161.179,43.2357 158.5,45C 154.556,45.9895 150.889,45.4895 147.5,43.5C 146.059,44.304 144.559,44.9706 143,45.5C 141.238,45.0556 141.405,44.5556 143.5,44C 142.263,43.7679 141.263,43.2679 140.5,42.5C 141.774,41.8106 141.774,40.9772 140.5,40C 141.449,39.3828 142.282,39.5494 143,40.5C 143.692,39.9747 144.192,39.3081 144.5,38.5C 143.105,36.1388 141.105,34.4721 138.5,33.5C 138.863,32.8165 139.196,32.1499 139.5,31.5C 141.48,30.5161 143.147,29.1827 144.5,27.5C 145.496,27.5858 146.329,27.2524 147,26.5C 149.671,28.7229 149.838,30.8896 147.5,33C 149.101,33.2734 150.601,33.7734 152,34.5C 153.238,37.9257 152.071,39.5923 148.5,39.5C 148.413,42.5983 148.913,42.9316 150,40.5C 150.85,41.4239 151.85,41.4239 153,40.5C 154.394,39.3867 155.561,38.0534 156.5,36.5C 157.417,35.8728 158.417,35.5394 159.5,35.5 Z"/></g>
<g><path style="opacity:1" fill="#a89ba3" d="M 46.5,35.5 C 46.427,37.0269 47.0937,38.0269 48.5,38.5C 48.7438,41.2626 50.0771,43.4293 52.5,45C 55.3098,45.9064 57.9764,47.0731 60.5,48.5C 62.3404,50.2434 63.6737,51.9101 64.5,53.5C 65.4776,53.0233 66.3109,52.3567 67,51.5C 70.0576,53.0174 73.2242,54.3508 76.5,55.5C 75.9423,56.7899 74.9423,57.6232 73.5,58C 75.3453,59.128 77.3453,59.628 79.5,59.5C 75.9553,61.2432 73.2887,60.2432 71.5,56.5C 68.9787,55.0343 66.312,54.5343 63.5,55C 64.5634,56.1882 65.8967,56.6882 67.5,56.5C 67.3253,58.6208 67.6586,60.6208 68.5,62.5C 67.5084,62.6716 66.8417,62.3382 66.5,61.5C 64.4088,58.2295 62.0755,55.0628 59.5,52C 56.4693,51.1335 53.8027,49.6335 51.5,47.5C 51.1667,47.6667 50.8333,47.8333 50.5,48C 52.6674,49.7589 54.334,51.9255 55.5,54.5C 53.9547,55.4519 52.288,55.7852 50.5,55.5C 48.1667,55.5 45.8333,55.5 43.5,55.5C 44.1098,54.609 44.4431,53.609 44.5,52.5C 46.604,52.7989 48.604,52.4656 50.5,51.5C 48.5985,49.4422 46.9319,47.2756 45.5,45C 44.7584,42.0031 44.4251,39.1698 44.5,36.5C 44.4088,34.3023 45.0755,33.9689 46.5,35.5 Z"/></g>
<g><path style="opacity:1" fill="#907776" d="M 132.5,37.5 C 131.402,38.397 131.402,39.2303 132.5,40C 131.531,41.7583 130.364,42.2583 129,41.5C 128.626,42.4162 128.126,43.2496 127.5,44C 128.833,45 128.833,46 127.5,47C 122.226,47.4802 116.893,47.3135 111.5,46.5C 110.833,46.5 110.167,46.5 109.5,46.5C 109.082,45.7784 108.416,45.2784 107.5,45C 109.5,44.5 111.5,44 113.5,43.5C 116.146,44.0381 118.813,44.7048 121.5,45.5C 123.756,44.5791 124.756,42.9124 124.5,40.5C 123.167,40.5 121.833,40.5 120.5,40.5C 120.351,39.448 120.517,38.448 121,37.5C 124.564,36.2131 128.397,36.2131 132.5,37.5 Z"/></g>
<g><path style="opacity:1" fill="#a4959d" d="M 180.5,48.5 C 179.877,46.2895 178.877,44.2895 177.5,42.5C 180.102,41.0313 182.269,41.698 184,44.5C 184.667,46.1667 184.667,47.8333 184,49.5C 182.989,48.6634 181.822,48.33 180.5,48.5 Z"/></g>
<g><path style="opacity:1" fill="#c2aeac" d="M 44.5,52.5 C 44.4431,53.609 44.1098,54.609 43.5,55.5C 40.8333,56.1667 38.1667,56.8333 35.5,57.5C 35.9577,54.6062 35.291,52.1062 33.5,50C 35.9815,48.1962 35.9815,46.6962 33.5,45.5C 35.4122,42.6793 37.0788,39.6793 38.5,36.5C 38.8333,37 39.1667,37.5 39.5,38C 36.9319,42.8759 36.0985,48.0425 37,53.5C 39.4111,53.7712 41.9111,53.4379 44.5,52.5 Z"/></g>
<g><path style="opacity:1" fill="#625051" d="M 66.5,29.5 C 63.4977,28.3565 60.4977,28.3565 57.5,29.5C 57.1667,30.1667 56.8333,30.8333 56.5,31.5C 57.7521,33.7354 58.2521,36.0687 58,38.5C 57.2613,37.4258 56.2613,36.7591 55,36.5C 53.91,38.1159 52.7433,38.7825 51.5,38.5C 52.8631,39.8928 53.6964,41.5595 54,43.5C 56.0223,44.7865 58.1889,45.7865 60.5,46.5C 62.2895,45.1228 64.2895,44.1228 66.5,43.5C 70.9742,46.0994 75.3075,46.0994 79.5,43.5C 80.9587,43.5674 82.2921,43.2341 83.5,42.5C 83.2178,43.7777 82.5511,44.7777 81.5,45.5C 76.935,47.1108 71.935,48.4441 66.5,49.5C 64.4842,49.1951 62.4842,48.8618 60.5,48.5C 57.9764,47.0731 55.3098,45.9064 52.5,45C 50.0771,43.4293 48.7438,41.2626 48.5,38.5C 48.5858,37.5041 48.2524,36.6708 47.5,36C 49.9377,34.818 52.271,33.4847 54.5,32C 53.2532,30.5421 53.2532,29.0421 54.5,27.5C 57.7844,26.343 61.1177,26.1764 64.5,27C 65.3805,27.7083 66.0472,28.5416 66.5,29.5 Z"/></g>
<g><path style="opacity:1" fill="#8d7779" d="M 81.5,45.5 C 85.3765,47.4974 85.0432,49.1641 80.5,50.5C 81.5901,52.003 82.7567,52.3363 84,51.5C 84.6667,52.1667 85.3333,52.8333 86,53.5C 88.4779,51.7134 91.3112,50.7134 94.5,50.5C 96.0847,51.0024 96.5847,52.0024 96,53.5C 93.631,55.2874 91.131,55.6208 88.5,54.5C 85.3382,55.0398 82.3382,56.0398 79.5,57.5C 78.3044,57.1543 78.3044,56.6543 79.5,56C 78.552,55.5172 77.552,55.3505 76.5,55.5C 73.2242,54.3508 70.0576,53.0174 67,51.5C 66.3109,52.3567 65.4776,53.0233 64.5,53.5C 63.6737,51.9101 62.3404,50.2434 60.5,48.5C 62.4842,48.8618 64.4842,49.1951 66.5,49.5C 71.935,48.4441 76.935,47.1108 81.5,45.5 Z"/></g>
<g><path style="opacity:1" fill="#745d5b" d="M 94.5,49.5 C 94.5,49.8333 94.5,50.1667 94.5,50.5C 91.3112,50.7134 88.4779,51.7134 86,53.5C 85.3333,52.8333 84.6667,52.1667 84,51.5C 82.7567,52.3363 81.5901,52.003 80.5,50.5C 85.0432,49.1641 85.3765,47.4974 81.5,45.5C 82.5511,44.7777 83.2178,43.7777 83.5,42.5C 83.7546,41.0639 84.0879,39.5639 84.5,38C 85.4162,37.6258 86.2496,37.1258 87,36.5C 87.6708,37.2524 88.5041,37.5858 89.5,37.5C 91.4893,36.5186 93.4893,35.5186 95.5,34.5C 96.1667,34.8333 96.8333,35.1667 97.5,35.5C 95.2883,37.7963 93.6216,39.963 92.5,42C 93.1667,42.3333 93.8333,42.6667 94.5,43C 91.6936,44.3051 90.8603,46.4718 92,49.5C 92.9772,48.2264 93.8106,48.2264 94.5,49.5 Z"/></g>
<g><path style="opacity:1" fill="#c2acab" d="M 106.5,46.5 C 107.5,46.5 108.5,46.5 109.5,46.5C 110.167,46.5 110.833,46.5 111.5,46.5C 111.389,47.1174 111.056,47.6174 110.5,48C 112.459,48.9309 114.459,49.7643 116.5,50.5C 119.662,48.8104 122.828,48.1438 126,48.5C 129.245,49.8034 132.078,51.4701 134.5,53.5C 134.436,54.3652 134.103,55.3652 133.5,56.5C 132.709,54.5572 131.209,53.5572 129,53.5C 124.854,53.8164 120.521,54.4831 116,55.5C 115.667,55.1667 115.333,54.8333 115,54.5C 114.925,56.935 114.092,57.6016 112.5,56.5C 111.221,52.8199 108.887,51.4866 105.5,52.5C 106.528,51.2126 106.195,50.0459 104.5,49C 105.056,47.9889 105.722,47.1556 106.5,46.5 Z"/></g>
<g><path style="opacity:1" fill="#8c7b81" d="M 66.5,61.5 C 60.715,60.4639 55.3817,58.4639 50.5,55.5C 52.288,55.7852 53.9547,55.4519 55.5,54.5C 54.334,51.9255 52.6674,49.7589 50.5,48C 50.8333,47.8333 51.1667,47.6667 51.5,47.5C 53.8027,49.6335 56.4693,51.1335 59.5,52C 62.0755,55.0628 64.4088,58.2295 66.5,61.5 Z"/></g>
<g><path style="opacity:1" fill="#765e58" d="M 177.5,32.5 C 179.167,31.1667 180.833,31.1667 182.5,32.5C 184.381,37.3157 185.548,42.3157 186,47.5C 186.377,48.9423 187.21,49.9423 188.5,50.5C 188.5,52.1667 188.5,53.8333 188.5,55.5C 188.665,58.5184 188.498,61.5184 188,64.5C 187.764,66.1193 186.931,67.1193 185.5,67.5C 184.37,65.6854 183.704,63.6854 183.5,61.5C 184.833,61.5 186.167,61.5 187.5,61.5C 187.146,59.4588 187.146,57.6255 187.5,56C 185.352,53.706 183.019,53.206 180.5,54.5C 180.167,54.5 179.833,54.5 179.5,54.5C 179.389,53.8826 179.056,53.3826 178.5,53C 180.037,51.8904 180.703,50.3904 180.5,48.5C 181.822,48.33 182.989,48.6634 184,49.5C 184.667,47.8333 184.667,46.1667 184,44.5C 182.269,41.698 180.102,41.0313 177.5,42.5C 176.833,42.5 176.5,42.1667 176.5,41.5C 175.833,40.5 175.167,39.5 174.5,38.5C 174.611,37.8826 174.944,37.3826 175.5,37C 172.428,35.3732 171.928,33.2066 174,30.5C 175.113,31.305 176.279,31.9717 177.5,32.5 Z"/></g>
<g><path style="opacity:1" fill="#d9cdd2" d="M 169.5,48.5 C 166.894,49.8499 166.894,51.3499 169.5,53C 167.606,54.0793 167.273,55.4126 168.5,57C 165.986,59.4145 163.319,61.5812 160.5,63.5C 155.132,66.5136 150.132,70.0136 145.5,74C 143.981,73.6692 142.648,73.8359 141.5,74.5C 140.167,74.5 138.833,74.5 137.5,74.5C 137.5,73.1667 137.5,71.8333 137.5,70.5C 143.836,68.8481 149.669,65.1814 155,59.5C 155.483,58.552 155.649,57.552 155.5,56.5C 152.402,56.5875 152.068,56.0875 154.5,55C 153.756,53.9614 152.756,53.4614 151.5,53.5C 151.783,52.7109 152.283,52.0442 153,51.5C 155.099,52.4664 156.932,53.7997 158.5,55.5C 159.308,55.1924 159.975,54.6924 160.5,54C 157.582,52.2267 154.582,50.7267 151.5,49.5C 153.489,48.1134 155.322,48.4468 157,50.5C 159.379,49.5331 161.212,47.5331 162.5,44.5C 163.81,47.5609 166.143,48.8942 169.5,48.5 Z"/></g>
<g><path style="opacity:1" fill="#ab9595" d="M 100.5,46.5 C 102.389,47.3799 104.389,47.3799 106.5,46.5C 105.722,47.1556 105.056,47.9889 104.5,49C 106.195,50.0459 106.528,51.2126 105.5,52.5C 105.167,52.5 104.833,52.5 104.5,52.5C 100.93,53.0571 97.5969,54.2238 94.5,56C 92.9588,57.5793 91.7922,59.4127 91,61.5C 87.4285,60.9776 83.5952,60.3109 79.5,59.5C 77.3453,59.628 75.3453,59.128 73.5,58C 74.9423,57.6232 75.9423,56.7899 76.5,55.5C 77.552,55.3505 78.552,55.5172 79.5,56C 78.3044,56.6543 78.3044,57.1543 79.5,57.5C 82.3382,56.0398 85.3382,55.0398 88.5,54.5C 91.131,55.6208 93.631,55.2874 96,53.5C 96.5847,52.0024 96.0847,51.0024 94.5,50.5C 94.5,50.1667 94.5,49.8333 94.5,49.5C 96.5168,48.4706 98.5168,47.4706 100.5,46.5 Z"/></g>
<g><path style="opacity:1" fill="#d7c3c3" d="M 112.5,56.5 C 112.559,58.7645 111.726,59.0978 110,57.5C 108.829,58.3396 107.662,59.1729 106.5,60C 110.185,60.9145 109.852,61.5811 105.5,62C 108.557,62.2565 111.557,62.7565 114.5,63.5C 116.366,62.4372 116.866,63.1039 116,65.5C 115.667,65.1667 115.333,64.8333 115,64.5C 113.706,65.8544 113.54,67.1877 114.5,68.5C 114.043,69.2975 113.376,69.6309 112.5,69.5C 111.402,68.603 111.402,67.7697 112.5,67C 110.866,66.5065 109.199,66.3398 107.5,66.5C 107.804,65.8501 108.137,65.1835 108.5,64.5C 105.914,63.52 103.247,63.1866 100.5,63.5C 98.8008,63.6602 97.1341,63.4935 95.5,63C 96.8333,62.3333 96.8333,61.6667 95.5,61C 96.9663,60.3645 98.2997,59.5312 99.5,58.5C 100.192,59.0253 100.692,59.6919 101,60.5C 102.008,58.741 103.508,57.5743 105.5,57C 104.833,56.3333 104.167,55.6667 103.5,55C 104.252,54.3292 104.586,53.4959 104.5,52.5C 104.833,52.5 105.167,52.5 105.5,52.5C 108.887,51.4866 111.221,52.8199 112.5,56.5 Z"/></g>
<g><path style="opacity:1" fill="#ebdcdc" d="M 133.5,56.5 C 133.833,57.1667 134.167,57.8333 134.5,58.5C 133.25,58.5774 132.417,59.244 132,60.5C 131.517,59.552 131.351,58.552 131.5,57.5C 130.022,57.238 128.689,57.5713 127.5,58.5C 127.694,60.0701 127.694,61.5701 127.5,63C 125.981,64.3513 124.648,65.8513 123.5,67.5C 121.872,68.5353 120.205,68.5353 118.5,67.5C 116.833,68.8333 115.167,70.1667 113.5,71.5C 113.082,70.7784 112.416,70.2784 111.5,70C 111.728,69.6012 112.062,69.4346 112.5,69.5C 113.376,69.6309 114.043,69.2975 114.5,68.5C 113.54,67.1877 113.706,65.8544 115,64.5C 115.333,64.8333 115.667,65.1667 116,65.5C 116.866,63.1039 116.366,62.4372 114.5,63.5C 111.557,62.7565 108.557,62.2565 105.5,62C 109.852,61.5811 110.185,60.9145 106.5,60C 107.662,59.1729 108.829,58.3396 110,57.5C 111.726,59.0978 112.559,58.7645 112.5,56.5C 114.092,57.6016 114.925,56.935 115,54.5C 115.333,54.8333 115.667,55.1667 116,55.5C 120.521,54.4831 124.854,53.8164 129,53.5C 131.209,53.5572 132.709,54.5572 133.5,56.5 Z"/></g>
<g><path style="opacity:1" fill="#e2d4d6" d="M 151.5,49.5 C 154.582,50.7267 157.582,52.2267 160.5,54C 159.975,54.6924 159.308,55.1924 158.5,55.5C 156.932,53.7997 155.099,52.4664 153,51.5C 152.283,52.0442 151.783,52.7109 151.5,53.5C 145.341,50.3404 144.007,51.8404 147.5,58C 145.467,64.1147 144.134,63.948 143.5,57.5C 141.208,57.7564 139.041,57.4231 137,56.5C 136.583,57.756 135.75,58.4226 134.5,58.5C 134.167,57.8333 133.833,57.1667 133.5,56.5C 134.103,55.3652 134.436,54.3652 134.5,53.5C 135.167,53.5 135.833,53.5 136.5,53.5C 137.675,53.719 138.675,53.3857 139.5,52.5C 136.691,49.7652 137.191,47.7652 141,46.5C 143.691,48.7526 147.191,49.7526 151.5,49.5 Z"/></g>
<g><path style="opacity:1" fill="#e3dadf" d="M 176.5,41.5 C 176.5,42.1667 176.833,42.5 177.5,42.5C 178.877,44.2895 179.877,46.2895 180.5,48.5C 180.703,50.3904 180.037,51.8904 178.5,53C 179.056,53.3826 179.389,53.8826 179.5,54.5C 176.236,56.4231 173.236,58.7565 170.5,61.5C 166.921,61.3163 163.587,61.983 160.5,63.5C 163.319,61.5812 165.986,59.4145 168.5,57C 167.273,55.4126 167.606,54.0793 169.5,53C 166.894,51.3499 166.894,49.8499 169.5,48.5C 171.352,47.9111 173.185,47.2444 175,46.5C 175.198,44.6183 175.698,42.9516 176.5,41.5 Z"/></g>
<g><path style="opacity:1" fill="#c4b1b4" d="M 104.5,52.5 C 104.586,53.4959 104.252,54.3292 103.5,55C 104.167,55.6667 104.833,56.3333 105.5,57C 103.508,57.5743 102.008,58.741 101,60.5C 100.692,59.6919 100.192,59.0253 99.5,58.5C 98.2997,59.5312 96.9663,60.3645 95.5,61C 96.8333,61.6667 96.8333,62.3333 95.5,63C 97.1341,63.4935 98.8008,63.6602 100.5,63.5C 99.5514,64.1524 98.3847,64.4857 97,64.5C 87.4705,63.8762 77.9705,63.2096 68.5,62.5C 67.6586,60.6208 67.3253,58.6208 67.5,56.5C 65.8967,56.6882 64.5634,56.1882 63.5,55C 66.312,54.5343 68.9787,55.0343 71.5,56.5C 73.2887,60.2432 75.9553,61.2432 79.5,59.5C 83.5952,60.3109 87.4285,60.9776 91,61.5C 91.7922,59.4127 92.9588,57.5793 94.5,56C 97.5969,54.2238 100.93,53.0571 104.5,52.5 Z"/></g>
<g><path style="opacity:1" fill="#bfa178" d="M 33.5,45.5 C 35.9815,46.6962 35.9815,48.1962 33.5,50C 35.291,52.1062 35.9577,54.6062 35.5,57.5C 35.5,57.8333 35.5,58.1667 35.5,58.5C 34.9084,61.1272 34.5751,63.7938 34.5,66.5C 34.0984,63.5234 33.0984,60.8567 31.5,58.5C 31.3347,54.8183 31.5014,51.1516 32,47.5C 32.2784,46.5842 32.7784,45.9175 33.5,45.5 Z"/></g>
<g><path style="opacity:1" fill="#a39297" d="M 179.5,54.5 C 179.833,54.5 180.167,54.5 180.5,54.5C 180.5,54.8333 180.5,55.1667 180.5,55.5C 176.088,58.7293 171.754,62.2293 167.5,66C 165.423,67.705 163.09,68.8717 160.5,69.5C 163.833,66.8333 167.167,64.1667 170.5,61.5C 173.236,58.7565 176.236,56.4231 179.5,54.5 Z"/></g>
<g><path style="opacity:1" fill="#4c3020" d="M 43.5,55.5 C 45.8333,55.5 48.1667,55.5 50.5,55.5C 55.3817,58.4639 60.715,60.4639 66.5,61.5C 66.8417,62.3382 67.5084,62.6716 68.5,62.5C 77.9705,63.2096 87.4705,63.8762 97,64.5C 98.3847,64.4857 99.5514,64.1524 100.5,63.5C 103.247,63.1866 105.914,63.52 108.5,64.5C 108.137,65.1835 107.804,65.8501 107.5,66.5C 106.833,66.5 106.5,66.8333 106.5,67.5C 101.438,67.7257 96.4376,67.3924 91.5,66.5C 85.1386,64.7503 78.6386,64.417 72,65.5C 68.2834,64.1124 64.45,63.1124 60.5,62.5C 55.3267,60.8807 50.3267,59.5474 45.5,58.5C 42.0469,58.9282 38.7135,58.9282 35.5,58.5C 35.5,58.1667 35.5,57.8333 35.5,57.5C 38.1667,56.8333 40.8333,56.1667 43.5,55.5 Z"/></g>
<g><path style="opacity:0.263" fill="#f2ecea" d="M 188.5,50.5 C 190.23,54.8833 191.23,59.5499 191.5,64.5C 190.184,61.5917 189.184,58.5917 188.5,55.5C 188.5,53.8333 188.5,52.1667 188.5,50.5 Z"/></g>
<g><path style="opacity:1" fill="#7c5324" d="M 60.5,62.5 C 64.45,63.1124 68.2834,64.1124 72,65.5C 78.6386,64.417 85.1386,64.7503 91.5,66.5C 90.5,66.5 89.5,66.5 88.5,66.5C 80.1457,66.5728 71.8124,66.2395 63.5,65.5C 62.209,65.7373 61.209,65.404 60.5,64.5C 60.5,63.8333 60.5,63.1667 60.5,62.5 Z"/></g>
<g><path style="opacity:1" fill="#9b9030" d="M 60.5,64.5 C 61.209,65.404 62.209,65.7373 63.5,65.5C 69.2573,67.1511 75.2573,68.1511 81.5,68.5C 81.6495,69.552 81.4828,70.552 81,71.5C 77.3388,68.7507 74.0054,69.084 71,72.5C 69.0692,69.8953 67.2358,69.8953 65.5,72.5C 66.2427,73.1818 66.9094,73.8485 67.5,74.5C 62.9673,73.4322 58.634,71.7655 54.5,69.5C 53.7492,70.376 53.2492,71.376 53,72.5C 51.9461,70.2464 50.4461,69.913 48.5,71.5C 47.6143,72.325 47.281,73.325 47.5,74.5C 44.8619,73.7585 43.5286,71.9251 43.5,69C 43.7549,67.6739 44.4216,66.6739 45.5,66C 45.1667,65.6667 44.8333,65.3333 44.5,65C 46.1261,65.1953 47.7928,65.1953 49.5,65C 48.0072,63.8438 48.1739,63.0104 50,62.5C 53.5473,63.1284 57.0473,63.7951 60.5,64.5 Z"/></g>
<g><path style="opacity:1" fill="#f1e6e9" d="M 151.5,53.5 C 152.756,53.4614 153.756,53.9614 154.5,55C 152.068,56.0875 152.402,56.5875 155.5,56.5C 155.649,57.552 155.483,58.552 155,59.5C 149.669,65.1814 143.836,68.8481 137.5,70.5C 136.71,69.3915 136.21,68.0581 136,66.5C 134.556,68.1554 132.722,68.822 130.5,68.5C 128.358,68.6896 126.025,68.8563 123.5,69C 127.424,69.7985 127.424,70.2985 123.5,70.5C 120.952,70.7351 119.286,69.7351 118.5,67.5C 120.205,68.5353 121.872,68.5353 123.5,67.5C 124.648,65.8513 125.981,64.3513 127.5,63C 127.694,61.5701 127.694,60.0701 127.5,58.5C 128.689,57.5713 130.022,57.238 131.5,57.5C 131.351,58.552 131.517,59.552 132,60.5C 132.417,59.244 133.25,58.5774 134.5,58.5C 135.75,58.4226 136.583,57.756 137,56.5C 139.041,57.4231 141.208,57.7564 143.5,57.5C 144.134,63.948 145.467,64.1147 147.5,58C 144.007,51.8404 145.341,50.3404 151.5,53.5 Z"/></g>
<g><path style="opacity:1" fill="#645355" d="M 180.5,55.5 C 181.627,56.1217 182.627,56.955 183.5,58C 181.5,58.3333 179.5,58.6667 177.5,59C 176.87,60.892 175.87,62.5587 174.5,64C 167.606,68.4348 160.939,72.9348 154.5,77.5C 152.347,78.5729 150.347,78.5729 148.5,77.5C 152.797,76.5248 156.464,74.5248 159.5,71.5C 159.328,70.5084 159.662,69.8417 160.5,69.5C 163.09,68.8717 165.423,67.705 167.5,66C 171.754,62.2293 176.088,58.7293 180.5,55.5 Z"/></g>
<g><path style="opacity:1" fill="#443231" d="M 185.5,67.5 C 185.5,67.8333 185.5,68.1667 185.5,68.5C 183.549,68.7733 182.049,68.1066 181,66.5C 179.306,67.6988 177.806,69.0322 176.5,70.5C 176.167,70.5 175.833,70.5 175.5,70.5C 176.234,69.2921 176.567,67.9587 176.5,66.5C 173.859,67.6261 171.193,68.9595 168.5,70.5C 164.95,75.6097 160.283,77.9431 154.5,77.5C 160.939,72.9348 167.606,68.4348 174.5,64C 175.87,62.5587 176.87,60.892 177.5,59C 179.5,58.6667 181.5,58.3333 183.5,58C 182.627,56.955 181.627,56.1217 180.5,55.5C 180.5,55.1667 180.5,54.8333 180.5,54.5C 183.019,53.206 185.352,53.706 187.5,56C 187.146,57.6255 187.146,59.4588 187.5,61.5C 186.167,61.5 184.833,61.5 183.5,61.5C 183.704,63.6854 184.37,65.6854 185.5,67.5 Z"/></g>
<g><path style="opacity:1" fill="#716222" d="M 35.5,58.5 C 38.7135,58.9282 42.0469,58.9282 45.5,58.5C 50.3267,59.5474 55.3267,60.8807 60.5,62.5C 60.5,63.1667 60.5,63.8333 60.5,64.5C 57.0473,63.7951 53.5473,63.1284 50,62.5C 48.1739,63.0104 48.0072,63.8438 49.5,65C 47.7928,65.1953 46.1261,65.1953 44.5,65C 44.8333,65.3333 45.1667,65.6667 45.5,66C 44.4216,66.6739 43.7549,67.6739 43.5,69C 43.5286,71.9251 44.8619,73.7585 47.5,74.5C 51.081,73.3475 54.7477,72.8475 58.5,73C 57.6195,73.7083 56.9528,74.5416 56.5,75.5C 53.5827,76.4174 50.5827,77.084 47.5,77.5C 43.5,76.1667 39.5,74.8333 35.5,73.5C 35.5,73.1667 35.5,72.8333 35.5,72.5C 36.8434,70.3166 36.51,68.3166 34.5,66.5C 34.5751,63.7938 34.9084,61.1272 35.5,58.5 Z"/></g>
<g><path style="opacity:1" fill="#f1e3e6" d="M 118.5,67.5 C 119.286,69.7351 120.952,70.7351 123.5,70.5C 127.424,70.2985 127.424,69.7985 123.5,69C 126.025,68.8563 128.358,68.6896 130.5,68.5C 132.019,69.4098 133.685,70.2432 135.5,71C 130.379,72.4232 130.379,73.4232 135.5,74C 133.782,74.346 132.115,74.846 130.5,75.5C 127.361,74.7103 123.861,75.0436 120,76.5C 118.273,76.3535 118.106,75.6869 119.5,74.5C 118.566,71.0352 117.066,70.7019 115,73.5C 114.617,72.944 114.117,72.6107 113.5,72.5C 113.5,72.1667 113.5,71.8333 113.5,71.5C 115.167,70.1667 116.833,68.8333 118.5,67.5 Z"/></g>
<g><path style="opacity:1" fill="#e4dbe0" d="M 170.5,61.5 C 167.167,64.1667 163.833,66.8333 160.5,69.5C 159.662,69.8417 159.328,70.5084 159.5,71.5C 154.849,72.1408 150.849,74.1408 147.5,77.5C 146.167,77.5 144.833,77.5 143.5,77.5C 140.86,79.0078 138.527,78.6744 136.5,76.5C 138.291,75.8302 139.958,75.1635 141.5,74.5C 142.648,73.8359 143.981,73.6692 145.5,74C 150.132,70.0136 155.132,66.5136 160.5,63.5C 163.587,61.983 166.921,61.3163 170.5,61.5 Z"/></g>
<g><path style="opacity:1" fill="#98827f" d="M 188.5,55.5 C 189.184,58.5917 190.184,61.5917 191.5,64.5C 191.5,64.8333 191.5,65.1667 191.5,65.5C 191.5,70.1667 191.5,74.8333 191.5,79.5C 190.698,78.0484 190.198,76.3817 190,74.5C 189.781,75.938 189.281,77.2713 188.5,78.5C 188.167,77.6667 187.833,76.8333 187.5,76C 188.519,73.4514 188.519,70.9514 187.5,68.5C 187.524,69.7865 187.19,71.1198 186.5,72.5C 184.938,72.7329 183.605,73.3995 182.5,74.5C 182.5,74.1667 182.5,73.8333 182.5,73.5C 182.586,72.5041 182.252,71.6708 181.5,71C 183.066,70.3918 184.4,69.5585 185.5,68.5C 185.5,68.1667 185.5,67.8333 185.5,67.5C 186.931,67.1193 187.764,66.1193 188,64.5C 188.498,61.5184 188.665,58.5184 188.5,55.5 Z"/></g>
<g><path style="opacity:1" fill="#675c22" d="M 88.5,66.5 C 89.5,66.5 90.5,66.5 91.5,66.5C 96.4376,67.3924 101.438,67.7257 106.5,67.5C 104.471,69.8585 102.471,72.1918 100.5,74.5C 96.3723,76.0881 92.039,77.0881 87.5,77.5C 87.2792,74.9028 86.7792,74.9028 86,77.5C 84.1154,75.2846 82.2821,75.6179 80.5,78.5C 79.8933,78.3764 79.56,78.0431 79.5,77.5C 80.3382,77.1583 80.6716,76.4916 80.5,75.5C 83.4352,74.7308 86.4352,74.0641 89.5,73.5C 90.6473,73.8178 91.4806,74.4844 92,75.5C 92.3742,74.5838 92.8742,73.7504 93.5,73C 89.749,72.4176 88.0824,70.2509 88.5,66.5 Z"/></g>
<g><path style="opacity:1" fill="#8a634a" d="M 31.5,58.5 C 33.0984,60.8567 34.0984,63.5234 34.5,66.5C 36.51,68.3166 36.8434,70.3166 35.5,72.5C 32.2941,73.1057 29.2941,72.439 26.5,70.5C 27.6935,70.0296 28.3601,69.0296 28.5,67.5C 28.4805,66.2739 28.1471,65.2739 27.5,64.5C 27.6225,61.7079 28.9558,59.7079 31.5,58.5 Z"/></g>
<g><path style="opacity:1" fill="#3d281e" d="M 31.5,59.5 C 32.6408,62.6399 32.8075,65.9733 32,69.5C 30.6575,70.9023 29.8242,70.5689 29.5,68.5C 30.3284,65.5212 30.9951,62.5212 31.5,59.5 Z"/></g>
<g><path style="opacity:1" fill="#867a27" d="M 63.5,65.5 C 71.8124,66.2395 80.1457,66.5728 88.5,66.5C 88.0824,70.2509 89.749,72.4176 93.5,73C 92.8742,73.7504 92.3742,74.5838 92,75.5C 91.4806,74.4844 90.6473,73.8178 89.5,73.5C 86.4352,74.0641 83.4352,74.7308 80.5,75.5C 78.0752,75.316 78.0752,74.6493 80.5,73.5C 76.3985,72.5424 72.0651,72.8758 67.5,74.5C 66.9094,73.8485 66.2427,73.1818 65.5,72.5C 67.2358,69.8953 69.0692,69.8953 71,72.5C 74.0054,69.084 77.3388,68.7507 81,71.5C 81.4828,70.552 81.6495,69.552 81.5,68.5C 75.2573,68.1511 69.2573,67.1511 63.5,65.5 Z"/></g>
<g><path style="opacity:1" fill="#e3d2d4" d="M 107.5,66.5 C 109.199,66.3398 110.866,66.5065 112.5,67C 111.402,67.7697 111.402,68.603 112.5,69.5C 112.062,69.4346 111.728,69.6012 111.5,70C 112.416,70.2784 113.082,70.7784 113.5,71.5C 113.5,71.8333 113.5,72.1667 113.5,72.5C 113.565,72.9382 113.399,73.2716 113,73.5C 112.667,72.8333 112.333,72.1667 112,71.5C 111.691,72.7659 111.191,73.9326 110.5,75C 112.751,75.7475 114.084,77.2475 114.5,79.5C 109.99,78.8274 105.657,77.6607 101.5,76C 100.944,75.6174 100.611,75.1174 100.5,74.5C 102.471,72.1918 104.471,69.8585 106.5,67.5C 106.5,66.8333 106.833,66.5 107.5,66.5 Z"/></g>
<g><path style="opacity:1" fill="#86683e" d="M 185.5,68.5 C 184.4,69.5585 183.066,70.3918 181.5,71C 182.252,71.6708 182.586,72.5041 182.5,73.5C 181.265,73.7214 180.265,74.3881 179.5,75.5C 178.817,75.1373 178.15,74.8039 177.5,74.5C 176.766,73.2921 176.433,71.9587 176.5,70.5C 177.806,69.0322 179.306,67.6988 181,66.5C 182.049,68.1066 183.549,68.7733 185.5,68.5 Z"/></g>
<g><path style="opacity:1" fill="#938287" d="M 159.5,71.5 C 156.464,74.5248 152.797,76.5248 148.5,77.5C 148.167,77.5 147.833,77.5 147.5,77.5C 150.849,74.1408 154.849,72.1408 159.5,71.5 Z"/></g>
<g><path style="opacity:1" fill="#7a7023" d="M 67.5,74.5 C 72.0651,72.8758 76.3985,72.5424 80.5,73.5C 78.0752,74.6493 78.0752,75.316 80.5,75.5C 80.6716,76.4916 80.3382,77.1583 79.5,77.5C 78.7387,76.6091 77.7387,75.9424 76.5,75.5C 74.5653,75.1266 72.732,75.7932 71,77.5C 70.0546,77.0946 69.3879,76.428 69,75.5C 67.8197,76.6841 66.3197,77.3507 64.5,77.5C 61.6644,77.2937 58.9977,76.627 56.5,75.5C 56.9528,74.5416 57.6195,73.7083 58.5,73C 54.7477,72.8475 51.081,73.3475 47.5,74.5C 47.281,73.325 47.6143,72.325 48.5,71.5C 50.4461,69.913 51.9461,70.2464 53,72.5C 53.2492,71.376 53.7492,70.376 54.5,69.5C 58.634,71.7655 62.9673,73.4322 67.5,74.5 Z"/></g>
<g><path style="opacity:0.308" fill="#f2e9e3" d="M 7.5,72.5 C 7.5,73.5 7.5,74.5 7.5,75.5C 6.87605,75.9169 6.54272,76.5836 6.5,77.5C 8.10155,80.3378 8.60155,83.3378 8,86.5C 7.18405,87.8228 6.01739,88.4894 4.5,88.5C 5.2899,87.2058 6.2899,86.0391 7.5,85C 5.06223,80.6771 5.06223,76.5105 7.5,72.5 Z"/></g>
<g><path style="opacity:1" fill="#e7dade" d="M 137.5,70.5 C 137.5,71.8333 137.5,73.1667 137.5,74.5C 138.833,74.5 140.167,74.5 141.5,74.5C 139.958,75.1635 138.291,75.8302 136.5,76.5C 138.527,78.6744 140.86,79.0078 143.5,77.5C 140.854,79.2525 137.854,80.2525 134.5,80.5C 126.87,81.7454 119.204,82.7454 111.5,83.5C 112.147,81.8595 113.147,80.5261 114.5,79.5C 114.084,77.2475 112.751,75.7475 110.5,75C 111.191,73.9326 111.691,72.7659 112,71.5C 112.333,72.1667 112.667,72.8333 113,73.5C 113.399,73.2716 113.565,72.9382 113.5,72.5C 114.117,72.6107 114.617,72.944 115,73.5C 117.066,70.7019 118.566,71.0352 119.5,74.5C 118.106,75.6869 118.273,76.3535 120,76.5C 123.861,75.0436 127.361,74.7103 130.5,75.5C 132.115,74.846 133.782,74.346 135.5,74C 130.379,73.4232 130.379,72.4232 135.5,71C 133.685,70.2432 132.019,69.4098 130.5,68.5C 132.722,68.822 134.556,68.1554 136,66.5C 136.21,68.0581 136.71,69.3915 137.5,70.5 Z"/></g>
<g><path style="opacity:1" fill="#a7969c" d="M 20.5,84.5 C 17.074,81.4784 13.7406,78.4784 10.5,75.5C 10.6309,74.6236 10.2975,73.9569 9.5,73.5C 8.81815,74.2427 8.15149,74.9094 7.5,75.5C 7.5,74.5 7.5,73.5 7.5,72.5C 7.5,71.8333 7.83333,71.5 8.5,71.5C 12.564,70.8372 16.2307,72.0039 19.5,75C 18.9491,76.3985 18.6158,77.7318 18.5,79C 19.8333,79.3333 21.1667,79.6667 22.5,80C 21.572,80.3879 20.9054,81.0546 20.5,82C 21.3353,83.1309 21.3353,83.9642 20.5,84.5 Z"/></g>
<g><path style="opacity:1" fill="#8d6f41" d="M 177.5,75.5 C 175.47,79.1935 172.47,81.8601 168.5,83.5C 171.111,81.3518 172.778,78.5185 173.5,75C 174.819,74.805 176.153,74.9717 177.5,75.5 Z"/></g>
<g><path style="opacity:1" fill="#b19470" d="M 182.5,73.5 C 182.5,73.8333 182.5,74.1667 182.5,74.5C 178.676,80.9968 173.343,85.6635 166.5,88.5C 165.624,88.6309 164.957,88.2975 164.5,87.5C 165.521,85.812 166.855,84.4787 168.5,83.5C 172.47,81.8601 175.47,79.1935 177.5,75.5C 177.5,75.1667 177.5,74.8333 177.5,74.5C 178.15,74.8039 178.817,75.1373 179.5,75.5C 180.265,74.3881 181.265,73.7214 182.5,73.5 Z"/></g>
<g><path style="opacity:1" fill="#c4b6bc" d="M 27.5,64.5 C 28.1471,65.2739 28.4805,66.2739 28.5,67.5C 28.3601,69.0296 27.6935,70.0296 26.5,70.5C 24.2104,68.9671 23.5437,69.3004 24.5,71.5C 23.1845,72.8066 22.1845,74.3066 21.5,76C 24.4001,76.9432 26.7334,78.6099 28.5,81C 30.5,81.3333 32.5,81.6667 34.5,82C 35.3366,83.0113 35.67,84.1779 35.5,85.5C 32.7545,84.5308 29.9212,83.8641 27,83.5C 25.272,83.4537 23.772,83.9537 22.5,85C 25.1897,85.7709 27.8564,86.6042 30.5,87.5C 32.0792,88.6669 33.4125,90.0002 34.5,91.5C 31.5338,90.602 28.7005,89.2687 26,87.5C 25.6174,88.056 25.1174,88.3893 24.5,88.5C 23.1667,87.1667 21.8333,85.8333 20.5,84.5C 21.3353,83.9642 21.3353,83.1309 20.5,82C 20.9054,81.0546 21.572,80.3879 22.5,80C 21.1667,79.6667 19.8333,79.3333 18.5,79C 18.6158,77.7318 18.9491,76.3985 19.5,75C 16.2307,72.0039 12.564,70.8372 8.5,71.5C 14.2499,67.5281 20.4166,66.8614 27,69.5C 27.4935,67.8659 27.6602,66.1992 27.5,64.5 Z"/></g>
<g><path style="opacity:1" fill="#5d531b" d="M 56.5,75.5 C 58.9977,76.627 61.6644,77.2937 64.5,77.5C 66.3197,77.3507 67.8197,76.6841 69,75.5C 69.3879,76.428 70.0546,77.0946 71,77.5C 72.732,75.7932 74.5653,75.1266 76.5,75.5C 77.7387,75.9424 78.7387,76.6091 79.5,77.5C 79.56,78.0431 79.8933,78.3764 80.5,78.5C 82.2821,75.6179 84.1154,75.2846 86,77.5C 86.7792,74.9028 87.2792,74.9028 87.5,77.5C 87.1667,78.1667 86.8333,78.8333 86.5,79.5C 83.9407,79.1984 81.6074,79.5318 79.5,80.5C 73.8333,80.5 68.1667,80.5 62.5,80.5C 61.0813,79.5489 59.4147,79.2155 57.5,79.5C 54.1667,78.8333 50.8333,78.1667 47.5,77.5C 50.5827,77.084 53.5827,76.4174 56.5,75.5 Z"/></g>
<g><path style="opacity:1" fill="#604336" d="M 175.5,70.5 C 175.833,70.5 176.167,70.5 176.5,70.5C 176.433,71.9587 176.766,73.2921 177.5,74.5C 177.5,74.8333 177.5,75.1667 177.5,75.5C 176.153,74.9717 174.819,74.805 173.5,75C 172.778,78.5185 171.111,81.3518 168.5,83.5C 166.855,84.4787 165.521,85.812 164.5,87.5C 164.957,88.2975 165.624,88.6309 166.5,88.5C 166.5,88.8333 166.5,89.1667 166.5,89.5C 163.873,90.0916 161.206,90.4249 158.5,90.5C 158.062,90.5654 157.728,90.3988 157.5,90C 159.167,88.8333 160.833,87.6667 162.5,86.5C 161.132,85.4063 159.965,85.7397 159,87.5C 157.272,86.6477 157.105,85.6477 158.5,84.5C 159.906,81.5865 161.906,79.0865 164.5,77C 168.406,74.86 172.072,72.6933 175.5,70.5 Z"/></g>
<g><path style="opacity:1" fill="#cdc0c5" d="M 100.5,74.5 C 100.611,75.1174 100.944,75.6174 101.5,76C 105.657,77.6607 109.99,78.8274 114.5,79.5C 113.147,80.5261 112.147,81.8595 111.5,83.5C 109.079,82.1086 106.412,81.2752 103.5,81C 97.6518,80.8272 91.9851,80.3272 86.5,79.5C 86.8333,78.8333 87.1667,78.1667 87.5,77.5C 92.039,77.0881 96.3723,76.0881 100.5,74.5 Z"/></g>
<g><path style="opacity:1" fill="#382520" d="M 175.5,70.5 C 172.072,72.6933 168.406,74.86 164.5,77C 161.906,79.0865 159.906,81.5865 158.5,84.5C 157.85,84.1961 157.183,83.8627 156.5,83.5C 154.709,86.6192 152.042,88.6192 148.5,89.5C 147.494,89.0623 147.494,88.3957 148.5,87.5C 142.913,86.5971 137.58,87.5971 132.5,90.5C 131.893,90.3764 131.56,90.0431 131.5,89.5C 131.5,88.8333 131.5,88.1667 131.5,87.5C 133.527,87.6621 135.527,87.4955 137.5,87C 138.598,86.2303 138.598,85.397 137.5,84.5C 138.873,84.6567 140.207,84.49 141.5,84C 143.717,81.8399 145.717,79.6732 147.5,77.5C 147.833,77.5 148.167,77.5 148.5,77.5C 150.347,78.5729 152.347,78.5729 154.5,77.5C 160.283,77.9431 164.95,75.6097 168.5,70.5C 171.193,68.9595 173.859,67.6261 176.5,66.5C 176.567,67.9587 176.234,69.2921 175.5,70.5 Z"/></g>
<g><path style="opacity:1" fill="#99888d" d="M 26.5,70.5 C 29.2941,72.439 32.2941,73.1057 35.5,72.5C 35.5,72.8333 35.5,73.1667 35.5,73.5C 34.5222,73.811 33.8555,74.4777 33.5,75.5C 35.2877,77.5765 36.9544,79.7432 38.5,82C 37.6634,83.0113 37.33,84.1779 37.5,85.5C 36.8333,85.5 36.1667,85.5 35.5,85.5C 35.67,84.1779 35.3366,83.0113 34.5,82C 32.5,81.6667 30.5,81.3333 28.5,81C 26.7334,78.6099 24.4001,76.9432 21.5,76C 22.1845,74.3066 23.1845,72.8066 24.5,71.5C 23.5437,69.3004 24.2104,68.9671 26.5,70.5 Z"/></g>
<g><path style="opacity:1" fill="#a79598" d="M 57.5,79.5 C 59.4147,79.2155 61.0813,79.5489 62.5,80.5C 61.8485,81.0906 61.1818,81.7573 60.5,82.5C 59.549,81.6744 58.549,81.5078 57.5,82C 60.5023,85.4991 64.1689,87.9991 68.5,89.5C 67.3991,90.5983 66.0657,90.765 64.5,90C 61.2956,87.6277 57.9622,85.4611 54.5,83.5C 53.7084,84.6998 53.7084,86.0331 54.5,87.5C 52.0052,86.8011 49.6719,85.8011 47.5,84.5C 46.603,83.4019 45.7697,83.4019 45,84.5C 44.487,82.4794 43.3203,80.9794 41.5,80C 43.2555,79.8595 44.9222,80.3595 46.5,81.5C 50.0278,80.0787 53.6945,79.412 57.5,79.5 Z"/></g>
<g><path style="opacity:1" fill="#9d8d93" d="M 79.5,80.5 C 81.6074,79.5318 83.9407,79.1984 86.5,79.5C 91.9851,80.3272 97.6518,80.8272 103.5,81C 106.412,81.2752 109.079,82.1086 111.5,83.5C 119.204,82.7454 126.87,81.7454 134.5,80.5C 130.205,82.5989 125.538,83.7656 120.5,84C 119.944,84.3826 119.611,84.8826 119.5,85.5C 117.5,85.5 115.5,85.5 113.5,85.5C 104.486,82.8709 95.1531,81.5376 85.5,81.5C 83.7354,80.5386 81.7354,80.2053 79.5,80.5 Z"/></g>
<g><path style="opacity:1" fill="#564546" d="M 143.5,77.5 C 144.833,77.5 146.167,77.5 147.5,77.5C 145.717,79.6732 143.717,81.8399 141.5,84C 140.207,84.49 138.873,84.6567 137.5,84.5C 131.591,85.4553 125.591,85.7886 119.5,85.5C 119.611,84.8826 119.944,84.3826 120.5,84C 125.538,83.7656 130.205,82.5989 134.5,80.5C 137.854,80.2525 140.854,79.2525 143.5,77.5 Z"/></g>
<g><path style="opacity:1" fill="#60453c" d="M 35.5,73.5 C 39.5,74.8333 43.5,76.1667 47.5,77.5C 50.8333,78.1667 54.1667,78.8333 57.5,79.5C 53.6945,79.412 50.0278,80.0787 46.5,81.5C 44.9222,80.3595 43.2555,79.8595 41.5,80C 43.3203,80.9794 44.487,82.4794 45,84.5C 45.7697,83.4019 46.603,83.4019 47.5,84.5C 47.9175,85.2216 48.5842,85.7216 49.5,86C 47.8455,86.6077 46.1789,87.1077 44.5,87.5C 42.1055,86.9853 39.7722,86.3186 37.5,85.5C 37.33,84.1779 37.6634,83.0113 38.5,82C 36.9544,79.7432 35.2877,77.5765 33.5,75.5C 33.8555,74.4777 34.5222,73.811 35.5,73.5 Z"/></g>
<g><path style="opacity:1" fill="#c9b7b9" d="M 62.5,80.5 C 68.1667,80.5 73.8333,80.5 79.5,80.5C 81.7354,80.2053 83.7354,80.5386 85.5,81.5C 84.6618,81.8417 84.3284,82.5084 84.5,83.5C 82.8333,84.8333 81.1667,86.1667 79.5,87.5C 79.4894,85.9826 78.8228,84.8159 77.5,84C 77.8333,83.6667 78.1667,83.3333 78.5,83C 75.5835,80.6566 73.2502,80.9899 71.5,84C 71.7591,85.2613 72.4258,86.2613 73.5,87C 72.1456,88.2937 70.8123,88.4604 69.5,87.5C 68.7025,87.9569 68.3691,88.6236 68.5,89.5C 64.1689,87.9991 60.5023,85.4991 57.5,82C 58.549,81.5078 59.549,81.6744 60.5,82.5C 61.1818,81.7573 61.8485,81.0906 62.5,80.5 Z"/></g>
<g><path style="opacity:1" fill="#3c2b29" d="M 137.5,84.5 C 138.598,85.397 138.598,86.2303 137.5,87C 135.527,87.4955 133.527,87.6621 131.5,87.5C 129.143,87.3367 126.81,87.5034 124.5,88C 125.167,88.3333 125.833,88.6667 126.5,89C 122.868,91.7062 119.034,91.8729 115,89.5C 112.959,90.4231 110.792,90.7564 108.5,90.5C 108.966,88.7988 108.966,87.2988 108.5,86C 110.134,85.5065 111.801,85.3398 113.5,85.5C 115.5,85.5 117.5,85.5 119.5,85.5C 125.591,85.7886 131.591,85.4553 137.5,84.5 Z"/></g>
<g><path style="opacity:1" fill="#573a29" d="M 84.5,83.5 C 85.1837,85.1852 86.517,86.1852 88.5,86.5C 88.8333,85.8333 89.1667,85.1667 89.5,84.5C 91.9252,85.3076 94.2585,86.3076 96.5,87.5C 94.1088,88.8086 94.1088,89.8086 96.5,90.5C 98.0293,90.4712 99.196,89.8045 100,88.5C 100.483,89.448 100.649,90.448 100.5,91.5C 106.224,91.743 111.891,92.4097 117.5,93.5C 116.375,94.9999 115.041,96.3332 113.5,97.5C 106.509,96.7441 99.5095,96.5774 92.5,97C 90.563,97.1216 89.2297,97.955 88.5,99.5C 87.7777,100.551 86.7777,101.218 85.5,101.5C 86.1098,100.609 86.4431,99.609 86.5,98.5C 86.5802,96.6069 87.5802,94.7736 89.5,93C 87.1165,91.5904 85.4498,89.5904 84.5,87C 83.8333,86.3333 83.1667,86.3333 82.5,87C 79.8534,89.6566 76.8534,91.8232 73.5,93.5C 72.7025,93.0431 72.3691,92.3764 72.5,91.5C 74.6351,89.9291 76.9684,88.5957 79.5,87.5C 81.1667,86.1667 82.8333,84.8333 84.5,83.5 Z"/></g>
<g><path style="opacity:1" fill="#ded6db" d="M 35.5,85.5 C 38.0964,86.9255 40.263,88.9255 42,91.5C 43.9852,89.5404 46.1518,89.707 48.5,92C 47.376,92.2492 46.376,92.7492 45.5,93.5C 46.9492,94.1719 48.2825,94.8386 49.5,95.5C 49.1667,96.5 48.5,97.1667 47.5,97.5C 43.0117,95.7547 38.6784,93.7547 34.5,91.5C 33.4125,90.0002 32.0792,88.6669 30.5,87.5C 27.8564,86.6042 25.1897,85.7709 22.5,85C 23.772,83.9537 25.272,83.4537 27,83.5C 29.9212,83.8641 32.7545,84.5308 35.5,85.5 Z"/></g>
<g><path style="opacity:1" fill="#ccbcbf" d="M 79.5,87.5 C 76.9684,88.5957 74.6351,89.9291 72.5,91.5C 72.1667,91.5 71.8333,91.5 71.5,91.5C 69.1175,93.0461 66.4509,93.7128 63.5,93.5C 60.672,91.2519 57.672,89.2519 54.5,87.5C 53.7084,86.0331 53.7084,84.6998 54.5,83.5C 57.9622,85.4611 61.2956,87.6277 64.5,90C 66.0657,90.765 67.3991,90.5983 68.5,89.5C 68.3691,88.6236 68.7025,87.9569 69.5,87.5C 70.8123,88.4604 72.1456,88.2937 73.5,87C 72.4258,86.2613 71.7591,85.2613 71.5,84C 73.2502,80.9899 75.5835,80.6566 78.5,83C 78.1667,83.3333 77.8333,83.6667 77.5,84C 78.8228,84.8159 79.4894,85.9826 79.5,87.5 Z"/></g>
<g><path style="opacity:1" fill="#46302b" d="M 85.5,81.5 C 95.1531,81.5376 104.486,82.8709 113.5,85.5C 111.801,85.3398 110.134,85.5065 108.5,86C 108.966,87.2988 108.966,88.7988 108.5,90.5C 110.792,90.7564 112.959,90.4231 115,89.5C 119.034,91.8729 122.868,91.7062 126.5,89C 125.833,88.6667 125.167,88.3333 124.5,88C 126.81,87.5034 129.143,87.3367 131.5,87.5C 131.5,88.1667 131.5,88.8333 131.5,89.5C 129.072,90.4154 126.739,91.5821 124.5,93C 122.19,93.4966 119.857,93.6633 117.5,93.5C 111.891,92.4097 106.224,91.743 100.5,91.5C 100.649,90.448 100.483,89.448 100,88.5C 99.196,89.8045 98.0293,90.4712 96.5,90.5C 94.1088,89.8086 94.1088,88.8086 96.5,87.5C 94.2585,86.3076 91.9252,85.3076 89.5,84.5C 89.1667,85.1667 88.8333,85.8333 88.5,86.5C 86.517,86.1852 85.1837,85.1852 84.5,83.5C 84.3284,82.5084 84.6618,81.8417 85.5,81.5 Z"/></g>
<g><path style="opacity:1" fill="#7b605a" d="M 47.5,84.5 C 49.6719,85.8011 52.0052,86.8011 54.5,87.5C 57.672,89.2519 60.672,91.2519 63.5,93.5C 60.1667,93.5 56.8333,93.5 53.5,93.5C 53.9175,92.7784 54.5842,92.2784 55.5,92C 51.5507,90.9431 47.8841,89.4431 44.5,87.5C 46.1789,87.1077 47.8455,86.6077 49.5,86C 48.5842,85.7216 47.9175,85.2216 47.5,84.5 Z"/></g>
<g><path style="opacity:1" fill="#6b524c" d="M 10.5,75.5 C 13.7406,78.4784 17.074,81.4784 20.5,84.5C 21.8333,85.8333 23.1667,87.1667 24.5,88.5C 25.2613,89.3909 26.2613,90.0576 27.5,90.5C 28.3857,91.325 28.719,92.325 28.5,93.5C 31.5819,94.7267 34.5819,96.2267 37.5,98C 40.0839,100.488 41.9172,102.988 43,105.5C 43.4169,104.244 44.2502,103.577 45.5,103.5C 45.9746,106.082 45.3079,108.082 43.5,109.5C 40.8915,109.6 38.5582,108.933 36.5,107.5C 34.7697,106.974 33.4363,105.974 32.5,104.5C 30.0456,102.715 28.3789,100.382 27.5,97.5C 24.5488,95.571 21.5488,93.571 18.5,91.5C 14.8063,88.0795 12.1396,84.4128 10.5,80.5C 10.5,78.8333 10.5,77.1667 10.5,75.5 Z"/></g>
<g><path style="opacity:1" fill="#645719" d="M 86.5,98.5 C 85.2089,97.4583 85.2089,96.2917 86.5,95C 85.0361,93.136 84.0361,90.9694 83.5,88.5C 82.5258,90.7427 82.1924,93.076 82.5,95.5C 79.528,97.6498 76.1947,98.6498 72.5,98.5C 72.5,99.5 72.5,100.5 72.5,101.5C 71.5902,99.9812 70.7568,98.3146 70,96.5C 65.5288,97.2591 61.0288,98.0924 56.5,99C 55.6634,100.011 55.33,101.178 55.5,102.5C 52.6015,103.094 49.9349,103.594 47.5,104C 46.5769,106.041 46.2436,108.208 46.5,110.5C 45.209,110.737 44.209,110.404 43.5,109.5C 45.3079,108.082 45.9746,106.082 45.5,103.5C 46.2341,102.292 46.5674,100.959 46.5,99.5C 47.2679,100.263 47.7679,101.263 48,102.5C 49.5549,99.9453 51.7215,98.1119 54.5,97C 59.1667,96.6667 63.8333,96.3333 68.5,96C 70.4386,95.0922 71.4386,93.5922 71.5,91.5C 71.8333,91.5 72.1667,91.5 72.5,91.5C 72.3691,92.3764 72.7025,93.0431 73.5,93.5C 76.8534,91.8232 79.8534,89.6566 82.5,87C 83.1667,86.3333 83.8333,86.3333 84.5,87C 85.4498,89.5904 87.1165,91.5904 89.5,93C 87.5802,94.7736 86.5802,96.6069 86.5,98.5 Z"/></g>
<g><path style="opacity:1" fill="#593e34" d="M 186.5,72.5 C 186.5,74.8333 186.5,77.1667 186.5,79.5C 187.675,79.281 188.675,79.6143 189.5,80.5C 186.166,84.2441 184.332,83.9107 184,79.5C 182.878,81.4205 182.044,83.4205 181.5,85.5C 178.677,86.9923 177.01,89.3257 176.5,92.5C 175.85,92.1961 175.183,91.8627 174.5,91.5C 173.5,93.1667 172.167,94.5 170.5,95.5C 168.544,106.142 167.21,106.142 166.5,95.5C 166.5,94.1667 166.5,92.8333 166.5,91.5C 168.933,90.4523 168.933,89.7856 166.5,89.5C 166.5,89.1667 166.5,88.8333 166.5,88.5C 173.343,85.6635 178.676,80.9968 182.5,74.5C 183.605,73.3995 184.938,72.7329 186.5,72.5 Z"/></g>
<g><path style="opacity:1" fill="#9c8e95" d="M 34.5,91.5 C 38.6784,93.7547 43.0117,95.7547 47.5,97.5C 47.1667,98.1667 46.8333,98.8333 46.5,99.5C 46.5674,100.959 46.2341,102.292 45.5,103.5C 44.2502,103.577 43.4169,104.244 43,105.5C 41.9172,102.988 40.0839,100.488 37.5,98C 34.5819,96.2267 31.5819,94.7267 28.5,93.5C 28.719,92.325 28.3857,91.325 27.5,90.5C 26.2613,90.0576 25.2613,89.3909 24.5,88.5C 25.1174,88.3893 25.6174,88.056 26,87.5C 28.7005,89.2687 31.5338,90.602 34.5,91.5 Z"/></g>
<g><path style="opacity:1" fill="#bdafb4" d="M 35.5,85.5 C 36.1667,85.5 36.8333,85.5 37.5,85.5C 39.7722,86.3186 42.1055,86.9853 44.5,87.5C 47.8841,89.4431 51.5507,90.9431 55.5,92C 54.5842,92.2784 53.9175,92.7784 53.5,93.5C 51.9382,93.7329 50.6049,94.3995 49.5,95.5C 48.2825,94.8386 46.9492,94.1719 45.5,93.5C 46.376,92.7492 47.376,92.2492 48.5,92C 46.1518,89.707 43.9852,89.5404 42,91.5C 40.263,88.9255 38.0964,86.9255 35.5,85.5 Z"/></g>
<g><path style="opacity:1" fill="#523629" d="M 158.5,84.5 C 157.105,85.6477 157.272,86.6477 159,87.5C 159.965,85.7397 161.132,85.4063 162.5,86.5C 160.833,87.6667 159.167,88.8333 157.5,90C 157.728,90.3988 158.062,90.5654 158.5,90.5C 149.212,92.0787 139.878,94.2453 130.5,97C 124.843,97.4994 119.176,97.6661 113.5,97.5C 115.041,96.3332 116.375,94.9999 117.5,93.5C 119.857,93.6633 122.19,93.4966 124.5,93C 126.739,91.5821 129.072,90.4154 131.5,89.5C 131.56,90.0431 131.893,90.3764 132.5,90.5C 137.58,87.5971 142.913,86.5971 148.5,87.5C 147.494,88.3957 147.494,89.0623 148.5,89.5C 152.042,88.6192 154.709,86.6192 156.5,83.5C 157.183,83.8627 157.85,84.1961 158.5,84.5 Z"/></g>
<g><path style="opacity:1" fill="#9e7f73" d="M 10.5,75.5 C 10.5,77.1667 10.5,78.8333 10.5,80.5C 9.38705,81.9464 9.22039,83.6131 10,85.5C 10.6543,84.3044 11.1543,84.3044 11.5,85.5C 11.1667,86.1667 10.8333,86.8333 10.5,87.5C 11.9501,88.8498 12.6168,90.5165 12.5,92.5C 11.6851,91.5707 10.8518,90.5707 10,89.5C 9.92912,92.2308 10.0958,94.7308 10.5,97C 9.5842,97.2784 8.91753,97.7784 8.5,98.5C 7.39573,99.9974 6.39573,101.664 5.5,103.5C 6.50641,105.354 6.50641,107.021 5.5,108.5C 4.58204,102.225 4.24871,95.8918 4.5,89.5C 4.5,89.1667 4.5,88.8333 4.5,88.5C 6.01739,88.4894 7.18405,87.8228 8,86.5C 8.60155,83.3378 8.10155,80.3378 6.5,77.5C 6.54272,76.5836 6.87605,75.9169 7.5,75.5C 8.15149,74.9094 8.81815,74.2427 9.5,73.5C 10.2975,73.9569 10.6309,74.6236 10.5,75.5 Z"/></g>
<g><path style="opacity:1" fill="#20140f" d="M 166.5,89.5 C 168.933,89.7856 168.933,90.4523 166.5,91.5C 166.44,90.9569 166.107,90.6236 165.5,90.5C 156.047,93.1924 146.714,95.8591 137.5,98.5C 136.779,96.6182 135.779,96.2848 134.5,97.5C 127.224,100.462 119.891,101.795 112.5,101.5C 104.388,101.827 96.3879,101.16 88.5,99.5C 89.2297,97.955 90.563,97.1216 92.5,97C 99.5095,96.5774 106.509,96.7441 113.5,97.5C 119.176,97.6661 124.843,97.4994 130.5,97C 139.878,94.2453 149.212,92.0787 158.5,90.5C 161.206,90.4249 163.873,90.0916 166.5,89.5 Z"/></g>
<g><path style="opacity:1" fill="#8d6750" d="M 10.5,80.5 C 12.1396,84.4128 14.8063,88.0795 18.5,91.5C 21.5488,93.571 24.5488,95.571 27.5,97.5C 28.3789,100.382 30.0456,102.715 32.5,104.5C 25.9127,102.088 20.246,98.2549 15.5,93C 14.552,92.5172 13.552,92.3505 12.5,92.5C 12.6168,90.5165 11.9501,88.8498 10.5,87.5C 10.8333,86.8333 11.1667,86.1667 11.5,85.5C 11.1543,84.3044 10.6543,84.3044 10,85.5C 9.22039,83.6131 9.38705,81.9464 10.5,80.5 Z"/></g>
<g><path style="opacity:1" fill="#492b1a" d="M 71.5,91.5 C 71.4386,93.5922 70.4386,95.0922 68.5,96C 63.8333,96.3333 59.1667,96.6667 54.5,97C 51.7215,98.1119 49.5549,99.9453 48,102.5C 47.7679,101.263 47.2679,100.263 46.5,99.5C 46.8333,98.8333 47.1667,98.1667 47.5,97.5C 48.5,97.1667 49.1667,96.5 49.5,95.5C 50.6049,94.3995 51.9382,93.7329 53.5,93.5C 56.8333,93.5 60.1667,93.5 63.5,93.5C 66.4509,93.7128 69.1175,93.0461 71.5,91.5 Z"/></g>
<g><path style="opacity:1" fill="#bfa661" d="M 12.5,92.5 C 13.552,92.3505 14.552,92.5172 15.5,93C 20.246,98.2549 25.9127,102.088 32.5,104.5C 33.4363,105.974 34.7697,106.974 36.5,107.5C 35.2196,108.931 33.5529,109.598 31.5,109.5C 30.7095,108.599 29.7095,107.932 28.5,107.5C 26.7952,105.808 24.7952,104.475 22.5,103.5C 20.8333,101.167 18.8333,99.1667 16.5,97.5C 15.8888,95.2254 14.5554,93.5588 12.5,92.5 Z"/></g>
<g><path style="opacity:1" fill="#422d27" d="M 166.5,91.5 C 166.5,92.8333 166.5,94.1667 166.5,95.5C 164.219,95.0773 162.552,95.744 161.5,97.5C 159.227,98.6953 156.894,98.6953 154.5,97.5C 152.962,97.4534 151.962,98.1201 151.5,99.5C 150.761,99.369 150.094,99.5357 149.5,100C 147.759,101.083 147.093,102.25 147.5,103.5C 143.545,104.803 139.545,106.136 135.5,107.5C 135.916,104.417 136.583,101.417 137.5,98.5C 146.714,95.8591 156.047,93.1924 165.5,90.5C 166.107,90.6236 166.44,90.9569 166.5,91.5 Z"/></g>
<g><path style="opacity:0.722" fill="#eee7e3" d="M 4.5,89.5 C 4.24871,95.8918 4.58204,102.225 5.5,108.5C 5.5,110.5 5.5,112.5 5.5,114.5C 2.45577,106.488 2.12244,98.155 4.5,89.5 Z"/></g>
<g><path style="opacity:1" fill="#9f8c34" d="M 86.5,98.5 C 86.4431,99.609 86.1098,100.609 85.5,101.5C 84.609,102.11 83.609,102.443 82.5,102.5C 82.5,100.167 82.5,97.8333 82.5,95.5C 82.1924,93.076 82.5258,90.7427 83.5,88.5C 84.0361,90.9694 85.0361,93.136 86.5,95C 85.2089,96.2917 85.2089,97.4583 86.5,98.5 Z"/></g>
<g><path style="opacity:1" fill="#6b5450" d="M 191.5,79.5 C 191.5,79.8333 191.5,80.1667 191.5,80.5C 189.658,81.72 188.158,83.72 187,86.5C 186.667,85.8333 186.333,85.1667 186,84.5C 185.51,85.7932 185.343,87.1266 185.5,88.5C 181.375,88.7226 180.709,90.2226 183.5,93C 181.348,95.12 179.848,97.62 179,100.5C 178.627,95.5687 179.461,90.5687 181.5,85.5C 182.044,83.4205 182.878,81.4205 184,79.5C 184.332,83.9107 186.166,84.2441 189.5,80.5C 188.675,79.6143 187.675,79.281 186.5,79.5C 186.5,77.1667 186.5,74.8333 186.5,72.5C 187.19,71.1198 187.524,69.7865 187.5,68.5C 188.519,70.9514 188.519,73.4514 187.5,76C 187.833,76.8333 188.167,77.6667 188.5,78.5C 189.281,77.2713 189.781,75.938 190,74.5C 190.198,76.3817 190.698,78.0484 191.5,79.5 Z"/></g>
<g><path style="opacity:1" fill="#927b78" d="M 191.5,80.5 C 191.452,87.1972 190.952,93.8639 190,100.5C 189.768,101.737 189.268,102.737 188.5,103.5C 188.011,102.005 187.345,100.671 186.5,99.5C 188.868,96.625 189.034,93.625 187,90.5C 186.179,94.1233 184.345,97.1233 181.5,99.5C 183.139,102.888 182.139,104.888 178.5,105.5C 178.753,103.173 178.086,101.173 176.5,99.5C 177.672,97.1772 177.672,94.8439 176.5,92.5C 177.01,89.3257 178.677,86.9923 181.5,85.5C 179.461,90.5687 178.627,95.5687 179,100.5C 179.848,97.62 181.348,95.12 183.5,93C 180.709,90.2226 181.375,88.7226 185.5,88.5C 185.343,87.1266 185.51,85.7932 186,84.5C 186.333,85.1667 186.667,85.8333 187,86.5C 188.158,83.72 189.658,81.72 191.5,80.5 Z"/></g>
<g><path style="opacity:0.024" fill="#ece7e5" d="M 191.5,65.5 C 192.659,75.6584 192.825,85.9917 192,96.5C 191.088,102.748 188.922,108.415 185.5,113.5C 186.492,110.177 187.492,106.844 188.5,103.5C 189.268,102.737 189.768,101.737 190,100.5C 190.952,93.8639 191.452,87.1972 191.5,80.5C 191.5,80.1667 191.5,79.8333 191.5,79.5C 191.5,74.8333 191.5,70.1667 191.5,65.5 Z"/></g>
<g><path style="opacity:1" fill="#9c827e" d="M 12.5,92.5 C 14.5554,93.5588 15.8888,95.2254 16.5,97.5C 14.3431,98.0533 14.5097,99.0533 17,100.5C 17.6667,101.833 17.6667,103.167 17,104.5C 16.2825,103.549 15.4491,103.383 14.5,104C 15.7865,106.022 16.7865,108.189 17.5,110.5C 16.2192,110.016 15.2192,110.683 14.5,112.5C 10.7832,108.717 8.78316,104.05 8.5,98.5C 8.91753,97.7784 9.5842,97.2784 10.5,97C 10.0958,94.7308 9.92912,92.2308 10,89.5C 10.8518,90.5707 11.6851,91.5707 12.5,92.5 Z"/></g>
<g><path style="opacity:1" fill="#513c37" d="M 161.5,97.5 C 161.611,98.1174 161.944,98.6174 162.5,99C 160.362,100.422 159.195,102.255 159,104.5C 159.667,103.833 160.333,103.167 161,102.5C 161.085,104.085 161.251,105.418 161.5,106.5C 162.736,105.754 164.07,105.421 165.5,105.5C 165.461,107.359 166.294,108.692 168,109.5C 168.075,107.065 168.908,106.398 170.5,107.5C 170.5,109.167 170.5,110.833 170.5,112.5C 168.857,112.52 167.524,111.853 166.5,110.5C 164.844,112.022 163.677,111.689 163,109.5C 158.988,111.956 154.821,113.289 150.5,113.5C 150.251,112.418 150.085,111.085 150,109.5C 148.893,110.712 148.393,110.379 148.5,108.5C 150.017,105.658 151.017,102.658 151.5,99.5C 151.962,98.1201 152.962,97.4534 154.5,97.5C 156.894,98.6953 159.227,98.6953 161.5,97.5 Z"/></g>
<g><path style="opacity:1" fill="#674f4b" d="M 186.5,99.5 C 185.357,99.9081 184.357,100.575 183.5,101.5C 184.309,103.071 184.643,104.738 184.5,106.5C 183.167,106.5 181.833,106.5 180.5,106.5C 180.88,108.698 180.213,110.365 178.5,111.5C 177.17,108.906 175.837,106.239 174.5,103.5C 172.625,104.409 171.292,105.743 170.5,107.5C 168.908,106.398 168.075,107.065 168,109.5C 166.294,108.692 165.461,107.359 165.5,105.5C 164.07,105.421 162.736,105.754 161.5,106.5C 161.251,105.418 161.085,104.085 161,102.5C 160.333,103.167 159.667,103.833 159,104.5C 159.195,102.255 160.362,100.422 162.5,99C 161.944,98.6174 161.611,98.1174 161.5,97.5C 162.552,95.744 164.219,95.0773 166.5,95.5C 167.21,106.142 168.544,106.142 170.5,95.5C 172.167,94.5 173.5,93.1667 174.5,91.5C 175.183,91.8627 175.85,92.1961 176.5,92.5C 177.672,94.8439 177.672,97.1772 176.5,99.5C 178.086,101.173 178.753,103.173 178.5,105.5C 182.139,104.888 183.139,102.888 181.5,99.5C 184.345,97.1233 186.179,94.1233 187,90.5C 189.034,93.625 188.868,96.625 186.5,99.5 Z"/></g>
<g><path style="opacity:1" fill="#725348" d="M 16.5,97.5 C 18.8333,99.1667 20.8333,101.167 22.5,103.5C 20.8958,104.287 20.2291,105.62 20.5,107.5C 21.9305,107.579 23.2638,107.246 24.5,106.5C 25.7112,107.274 25.7112,108.107 24.5,109C 26.3289,109.273 27.8289,110.107 29,111.5C 29.3988,111.272 29.5654,110.938 29.5,110.5C 31.1336,111.581 32.467,112.915 33.5,114.5C 35.2785,115.67 36.2785,117.336 36.5,119.5C 33.4131,119.367 31.4131,120.7 30.5,123.5C 29.287,120.775 27.4536,118.441 25,116.5C 24.5172,117.448 24.3505,118.448 24.5,119.5C 23.2651,117.983 23.2651,116.316 24.5,114.5C 23.1667,113.5 21.8333,112.5 20.5,111.5C 20.681,113.829 20.3477,116.329 19.5,119C 20.1667,119.333 20.8333,119.667 21.5,120C 20.0715,120.579 18.7382,120.412 17.5,119.5C 17.6602,117.801 17.4935,116.134 17,114.5C 16.6667,115.167 16.3333,115.833 16,116.5C 15.7679,115.263 15.2679,114.263 14.5,113.5C 14.5,113.167 14.5,112.833 14.5,112.5C 15.2192,110.683 16.2192,110.016 17.5,110.5C 16.7865,108.189 15.7865,106.022 14.5,104C 15.4491,103.383 16.2825,103.549 17,104.5C 17.6667,103.167 17.6667,101.833 17,100.5C 14.5097,99.0533 14.3431,98.0533 16.5,97.5 Z"/></g>
<g><path style="opacity:1" fill="#996d4d" d="M 22.5,103.5 C 24.7952,104.475 26.7952,105.808 28.5,107.5C 28.0618,107.435 27.7284,107.601 27.5,108C 28.3805,108.708 29.0472,109.542 29.5,110.5C 29.5654,110.938 29.3988,111.272 29,111.5C 27.8289,110.107 26.3289,109.273 24.5,109C 25.7112,108.107 25.7112,107.274 24.5,106.5C 23.2638,107.246 21.9305,107.579 20.5,107.5C 20.2291,105.62 20.8958,104.287 22.5,103.5 Z"/></g>
<g><path style="opacity:1" fill="#46410a" d="M 82.5,95.5 C 82.5,97.8333 82.5,100.167 82.5,102.5C 81.612,105.054 81.2786,107.721 81.5,110.5C 80.5041,110.586 79.6708,110.252 79,109.5C 78.5172,110.448 78.3505,111.448 78.5,112.5C 77.1266,112.343 75.7932,112.51 74.5,113C 75.1667,113.333 75.8333,113.667 76.5,114C 75.6195,114.708 74.9528,115.542 74.5,116.5C 73.9036,113.383 72.237,110.883 69.5,109C 70.7932,108.51 72.1266,108.343 73.5,108.5C 73.5,107.167 73.5,105.833 73.5,104.5C 77.7895,104.256 78.4561,102.589 75.5,99.5C 74.2888,100.274 74.2888,101.107 75.5,102C 74.4232,102.47 73.4232,102.303 72.5,101.5C 72.5,100.5 72.5,99.5 72.5,98.5C 76.1947,98.6498 79.528,97.6498 82.5,95.5 Z"/></g>
<g><path style="opacity:1" fill="#49332d" d="M 147.5,103.5 C 147.343,107.995 145.01,110.661 140.5,111.5C 139.702,115.384 138.036,116.051 135.5,113.5C 133.355,114.682 133.355,116.182 135.5,118C 135,118.5 134.5,119 134,119.5C 131.893,120.591 129.393,120.591 126.5,119.5C 126.703,117.61 126.037,116.11 124.5,115C 126.368,114.996 128.202,115.496 130,116.5C 131.713,115.863 131.879,114.863 130.5,113.5C 133.285,112.386 134.952,110.386 135.5,107.5C 139.545,106.136 143.545,104.803 147.5,103.5 Z"/></g>
<g><path style="opacity:1" fill="#4f3529" d="M 85.5,101.5 C 86.9187,102.451 88.5853,102.784 90.5,102.5C 90.5,104.167 90.5,105.833 90.5,107.5C 91.8333,107.5 93.1667,107.5 94.5,107.5C 94.1192,109.942 94.7859,110.609 96.5,109.5C 98.3334,110.052 100,110.885 101.5,112C 100.747,113.487 99.9138,113.654 99,112.5C 98.7206,115.457 97.8873,118.123 96.5,120.5C 92.6316,115.52 88.6316,110.52 84.5,105.5C 83.914,105.709 83.414,106.043 83,106.5C 82.5017,109.817 82.335,113.15 82.5,116.5C 82.6716,117.492 82.3382,118.158 81.5,118.5C 81.5,115.833 81.5,113.167 81.5,110.5C 81.2786,107.721 81.612,105.054 82.5,102.5C 83.609,102.443 84.609,102.11 85.5,101.5 Z"/></g>
<g><path style="opacity:1" fill="#5f4c49" d="M 186.5,99.5 C 187.345,100.671 188.011,102.005 188.5,103.5C 187.492,106.844 186.492,110.177 185.5,113.5C 181.881,117.785 177.881,121.785 173.5,125.5C 173.5,124.833 173.5,124.167 173.5,123.5C 174.502,121.989 175.169,120.322 175.5,118.5C 177.592,118.439 179.092,117.439 180,115.5C 180.585,114.002 180.085,113.002 178.5,112.5C 178.5,112.167 178.5,111.833 178.5,111.5C 180.213,110.365 180.88,108.698 180.5,106.5C 181.833,106.5 183.167,106.5 184.5,106.5C 184.643,104.738 184.309,103.071 183.5,101.5C 184.357,100.575 185.357,99.9081 186.5,99.5 Z"/></g>
<g><path style="opacity:1" fill="#c1acaa" d="M 8.5,98.5 C 8.78316,104.05 10.7832,108.717 14.5,112.5C 14.5,112.833 14.5,113.167 14.5,113.5C 14.0133,114.473 13.5133,115.473 13,116.5C 10.973,114.473 8.97295,112.473 7,110.5C 6.50999,111.793 6.34332,113.127 6.5,114.5C 6.16667,114.5 5.83333,114.5 5.5,114.5C 5.5,112.5 5.5,110.5 5.5,108.5C 6.50641,107.021 6.50641,105.354 5.5,103.5C 6.39573,101.664 7.39573,99.9974 8.5,98.5 Z"/></g>
<g><path style="opacity:1" fill="#4b3228" d="M 134.5,97.5 C 133.589,101.492 132.589,105.159 131.5,108.5C 129.5,109.5 127.5,110.5 125.5,111.5C 124.094,110.332 122.928,110.665 122,112.5C 120.346,112.794 118.846,112.127 117.5,110.5C 115.396,107.833 113.729,104.833 112.5,101.5C 119.891,101.795 127.224,100.462 134.5,97.5 Z"/></g>
<g><path style="opacity:1" fill="#8f862a" d="M 67.5,107.5 C 67.0618,107.435 66.7284,107.601 66.5,108C 68.4506,109.734 69.4506,111.901 69.5,114.5C 67.6214,114.607 67.2881,114.107 68.5,113C 67.9747,112.308 67.3081,111.808 66.5,111.5C 66.5884,113.231 65.5884,114.564 63.5,115.5C 62.2089,114.458 62.2089,113.292 63.5,112C 62.8905,109.942 61.8905,109.109 60.5,109.5C 61.8114,108.742 62.3114,107.742 62,106.5C 59.7967,106.239 57.63,106.739 55.5,108C 56.448,108.483 57.448,108.649 58.5,108.5C 58.6713,111.797 58.0046,112.131 56.5,109.5C 55.4096,110.727 54.0762,111.56 52.5,112C 56.0952,112.974 55.7618,113.807 51.5,114.5C 51.0618,114.565 50.7284,114.399 50.5,114C 51.3106,111.38 52.6439,109.047 54.5,107C 54.2645,106.127 53.9312,105.293 53.5,104.5C 58.5401,101.596 63.8734,99.9293 69.5,99.5C 69.5,100.833 69.5,102.167 69.5,103.5C 68.1779,103.67 67.0113,103.337 66,102.5C 66.4866,104.044 66.9866,105.71 67.5,107.5 Z"/></g>
<g><path style="opacity:1" fill="#50362c" d="M 137.5,98.5 C 136.583,101.417 135.916,104.417 135.5,107.5C 134.952,110.386 133.285,112.386 130.5,113.5C 131.879,114.863 131.713,115.863 130,116.5C 128.202,115.496 126.368,114.996 124.5,115C 126.037,116.11 126.703,117.61 126.5,119.5C 126.167,120.167 125.833,120.833 125.5,121.5C 123.33,120.232 121.163,120.232 119,121.5C 118.667,120.833 118.333,120.167 118,119.5C 117.727,121.101 117.227,122.601 116.5,124C 114.238,124.642 112.071,125.475 110,126.5C 109.667,125.833 109.333,125.167 109,124.5C 108.612,125.428 107.945,126.095 107,126.5C 105.7,125.293 104.2,124.626 102.5,124.5C 102.67,123.178 102.337,122.011 101.5,121C 104.216,117.803 105.216,114.303 104.5,110.5C 107.493,111.135 110.493,111.301 113.5,111C 112.289,110.107 112.289,109.274 113.5,108.5C 114.622,109.63 115.956,110.297 117.5,110.5C 118.846,112.127 120.346,112.794 122,112.5C 122.928,110.665 124.094,110.332 125.5,111.5C 127.5,110.5 129.5,109.5 131.5,108.5C 132.589,105.159 133.589,101.492 134.5,97.5C 135.779,96.2848 136.779,96.6182 137.5,98.5 Z"/></g>
<g><path style="opacity:1" fill="#45302a" d="M 88.5,99.5 C 96.3879,101.16 104.388,101.827 112.5,101.5C 113.729,104.833 115.396,107.833 117.5,110.5C 115.956,110.297 114.622,109.63 113.5,108.5C 112.289,109.274 112.289,110.107 113.5,111C 110.493,111.301 107.493,111.135 104.5,110.5C 105.216,114.303 104.216,117.803 101.5,121C 102.337,122.011 102.67,123.178 102.5,124.5C 102.443,125.609 102.11,126.609 101.5,127.5C 100.167,126.833 99.1667,125.833 98.5,124.5C 97.8333,123.167 97.1667,121.833 96.5,120.5C 97.8873,118.123 98.7206,115.457 99,112.5C 99.9138,113.654 100.747,113.487 101.5,112C 100,110.885 98.3334,110.052 96.5,109.5C 94.7859,110.609 94.1192,109.942 94.5,107.5C 93.1667,107.5 91.8333,107.5 90.5,107.5C 90.5,105.833 90.5,104.167 90.5,102.5C 88.5853,102.784 86.9187,102.451 85.5,101.5C 86.7777,101.218 87.7777,100.551 88.5,99.5 Z"/></g>
<g><path style="opacity:1" fill="#432f29" d="M 151.5,99.5 C 151.017,102.658 150.017,105.658 148.5,108.5C 147.717,110.076 146.55,111.409 145,112.5C 144.084,117.454 145.084,117.787 148,113.5C 149.585,114.376 150.585,115.709 151,117.5C 154.377,113.483 156.21,113.817 156.5,118.5C 154.052,119.372 151.885,120.705 150,122.5C 149.389,118.728 148.389,118.728 147,122.5C 145.296,121.547 143.63,120.547 142,119.5C 140.48,120.697 139.313,122.197 138.5,124C 136.782,124.346 135.115,124.846 133.5,125.5C 131.55,124.848 130.55,125.848 130.5,128.5C 129.5,128.5 128.5,128.5 127.5,128.5C 127.755,127.064 128.088,125.564 128.5,124C 127.058,123.623 126.058,122.79 125.5,121.5C 125.833,120.833 126.167,120.167 126.5,119.5C 129.393,120.591 131.893,120.591 134,119.5C 134.5,119 135,118.5 135.5,118C 133.355,116.182 133.355,114.682 135.5,113.5C 138.036,116.051 139.702,115.384 140.5,111.5C 145.01,110.661 147.343,107.995 147.5,103.5C 147.093,102.25 147.759,101.083 149.5,100C 150.094,99.5357 150.761,99.369 151.5,99.5 Z"/></g>
<g><path style="opacity:1" fill="#4b3632" d="M 178.5,111.5 C 178.5,111.833 178.5,112.167 178.5,112.5C 177.691,113.469 176.691,114.302 175.5,115C 176.993,116.156 176.826,116.99 175,117.5C 174.055,117.095 173.388,116.428 173,115.5C 170.553,118.708 168.887,118.708 168,115.5C 166.667,116.167 165.667,117.167 165,118.5C 164.581,117.328 163.915,116.328 163,115.5C 161.97,117.346 160.804,119.013 159.5,120.5C 158.29,120.068 157.29,119.401 156.5,118.5C 156.21,113.817 154.377,113.483 151,117.5C 150.585,115.709 149.585,114.376 148,113.5C 145.084,117.787 144.084,117.454 145,112.5C 146.55,111.409 147.717,110.076 148.5,108.5C 148.393,110.379 148.893,110.712 150,109.5C 150.085,111.085 150.251,112.418 150.5,113.5C 154.821,113.289 158.988,111.956 163,109.5C 163.677,111.689 164.844,112.022 166.5,110.5C 167.524,111.853 168.857,112.52 170.5,112.5C 170.5,110.833 170.5,109.167 170.5,107.5C 171.292,105.743 172.625,104.409 174.5,103.5C 175.837,106.239 177.17,108.906 178.5,111.5 Z"/></g>
<g><path style="opacity:1" fill="#86792e" d="M 72.5,101.5 C 71.9455,104.391 70.2789,106.391 67.5,107.5C 66.9866,105.71 66.4866,104.044 66,102.5C 67.0113,103.337 68.1779,103.67 69.5,103.5C 69.5,102.167 69.5,100.833 69.5,99.5C 63.8734,99.9293 58.5401,101.596 53.5,104.5C 53.9312,105.293 54.2645,106.127 54.5,107C 52.6439,109.047 51.3106,111.38 50.5,114C 50.7284,114.399 51.0618,114.565 51.5,114.5C 51.6497,118.848 50.3164,122.514 47.5,125.5C 47.4068,128.88 47.4068,132.213 47.5,135.5C 46.8826,135.389 46.3826,135.056 46,134.5C 45.4462,128.812 45.6129,123.145 46.5,117.5C 46.5,116.5 46.5,115.5 46.5,114.5C 40.5805,115.115 35.5805,113.448 31.5,109.5C 33.5529,109.598 35.2196,108.931 36.5,107.5C 38.5582,108.933 40.8915,109.6 43.5,109.5C 44.209,110.404 45.209,110.737 46.5,110.5C 46.2436,108.208 46.5769,106.041 47.5,104C 49.9349,103.594 52.6015,103.094 55.5,102.5C 55.33,101.178 55.6634,100.011 56.5,99C 61.0288,98.0924 65.5288,97.2591 70,96.5C 70.7568,98.3146 71.5902,99.9812 72.5,101.5 Z"/></g>
<g><path style="opacity:1" fill="#352015" d="M 28.5,107.5 C 29.7095,107.932 30.7095,108.599 31.5,109.5C 35.5805,113.448 40.5805,115.115 46.5,114.5C 46.5,115.5 46.5,116.5 46.5,117.5C 45.7784,117.918 45.2784,118.584 45,119.5C 44.6174,118.944 44.1174,118.611 43.5,118.5C 43.3893,117.883 43.056,117.383 42.5,117C 39.348,116.605 36.348,115.772 33.5,114.5C 32.467,112.915 31.1336,111.581 29.5,110.5C 29.0472,109.542 28.3805,108.708 27.5,108C 27.7284,107.601 28.0618,107.435 28.5,107.5 Z"/></g>
<g><path style="opacity:1" fill="#5b5510" d="M 74.5,116.5 C 74.631,117.239 74.4643,117.906 74,118.5C 73.3457,117.304 72.8457,117.304 72.5,118.5C 72.9767,119.478 73.6433,120.311 74.5,121C 71.6978,123.492 70.1978,126.658 70,130.5C 68.9887,131.337 67.8221,131.67 66.5,131.5C 66.5,132.5 66.5,133.5 66.5,134.5C 65.5,134.5 64.5,134.5 63.5,134.5C 63.5,135.833 63.5,137.167 63.5,138.5C 62.8902,139.391 62.5569,140.391 62.5,141.5C 61.8333,141.5 61.1667,141.5 60.5,141.5C 60.5172,139.435 60.8505,137.435 61.5,135.5C 62.095,133.373 63.095,132.207 64.5,132C 63.7665,130.234 63.4332,128.401 63.5,126.5C 65.3307,127.052 66.9974,127.052 68.5,126.5C 67.9363,122.508 68.2696,118.508 69.5,114.5C 69.4506,111.901 68.4506,109.734 66.5,108C 66.7284,107.601 67.0618,107.435 67.5,107.5C 70.2789,106.391 71.9455,104.391 72.5,101.5C 73.4232,102.303 74.4232,102.47 75.5,102C 74.2888,101.107 74.2888,100.274 75.5,99.5C 78.4561,102.589 77.7895,104.256 73.5,104.5C 73.5,105.833 73.5,107.167 73.5,108.5C 72.1266,108.343 70.7932,108.51 69.5,109C 72.237,110.883 73.9036,113.383 74.5,116.5 Z"/></g>
<g><path style="opacity:1" fill="#3f3911" d="M 81.5,110.5 C 81.5,113.167 81.5,115.833 81.5,118.5C 81.0618,118.435 80.7284,118.601 80.5,119C 81.4158,119.278 82.0825,119.778 82.5,120.5C 80.5956,120.738 79.2623,121.738 78.5,123.5C 77.0937,123.973 76.427,124.973 76.5,126.5C 75.5161,128.48 74.1827,130.147 72.5,131.5C 70.9731,131.427 69.9731,132.094 69.5,133.5C 67.5,135.167 65.5,136.833 63.5,138.5C 63.5,137.167 63.5,135.833 63.5,134.5C 64.5,134.5 65.5,134.5 66.5,134.5C 66.5,133.5 66.5,132.5 66.5,131.5C 67.8221,131.67 68.9887,131.337 70,130.5C 70.1978,126.658 71.6978,123.492 74.5,121C 73.6433,120.311 72.9767,119.478 72.5,118.5C 72.8457,117.304 73.3457,117.304 74,118.5C 74.4643,117.906 74.631,117.239 74.5,116.5C 74.9528,115.542 75.6195,114.708 76.5,114C 75.8333,113.667 75.1667,113.333 74.5,113C 75.7932,112.51 77.1266,112.343 78.5,112.5C 78.3505,111.448 78.5172,110.448 79,109.5C 79.6708,110.252 80.5041,110.586 81.5,110.5 Z"/></g>
<g><path style="opacity:1" fill="#423131" d="M 178.5,112.5 C 180.085,113.002 180.585,114.002 180,115.5C 179.092,117.439 177.592,118.439 175.5,118.5C 175.169,120.322 174.502,121.989 173.5,123.5C 172.85,123.196 172.183,122.863 171.5,122.5C 169.54,123.723 167.707,125.056 166,126.5C 165.764,124.236 165.264,122.069 164.5,120C 162.953,119.667 161.62,120.167 160.5,121.5C 159.893,121.376 159.56,121.043 159.5,120.5C 160.804,119.013 161.97,117.346 163,115.5C 163.915,116.328 164.581,117.328 165,118.5C 165.667,117.167 166.667,116.167 168,115.5C 168.887,118.708 170.553,118.708 173,115.5C 173.388,116.428 174.055,117.095 175,117.5C 176.826,116.99 176.993,116.156 175.5,115C 176.691,114.302 177.691,113.469 178.5,112.5 Z"/></g>
<g><path style="opacity:1" fill="#422d25" d="M 125.5,121.5 C 126.058,122.79 127.058,123.623 128.5,124C 128.088,125.564 127.755,127.064 127.5,128.5C 125.854,128.542 124.188,128.542 122.5,128.5C 121.808,127.975 121.308,127.308 121,126.5C 119.582,129.001 118.582,128.668 118,125.5C 115.465,127.471 112.798,128.138 110,127.5C 108.342,129.468 106.675,131.468 105,133.5C 104.617,132.944 104.117,132.611 103.5,132.5C 102.559,130.95 101.893,129.284 101.5,127.5C 102.11,126.609 102.443,125.609 102.5,124.5C 104.2,124.626 105.7,125.293 107,126.5C 107.945,126.095 108.612,125.428 109,124.5C 109.333,125.167 109.667,125.833 110,126.5C 112.071,125.475 114.238,124.642 116.5,124C 117.227,122.601 117.727,121.101 118,119.5C 118.333,120.167 118.667,120.833 119,121.5C 121.163,120.232 123.33,120.232 125.5,121.5 Z"/></g>
<g><path style="opacity:1" fill="#ad9189" d="M 14.5,113.5 C 15.2679,114.263 15.7679,115.263 16,116.5C 16.3333,115.833 16.6667,115.167 17,114.5C 17.4935,116.134 17.6602,117.801 17.5,119.5C 17.1788,121.048 16.1788,121.715 14.5,121.5C 14.2627,122.791 14.596,123.791 15.5,124.5C 15.1959,126.796 14.1959,127.129 12.5,125.5C 12.0114,122.533 10.8448,119.867 9,117.5C 10.1421,121.302 10.6421,125.302 10.5,129.5C 7.66398,125.024 6.33064,120.024 6.5,114.5C 6.34332,113.127 6.50999,111.793 7,110.5C 8.97295,112.473 10.973,114.473 13,116.5C 13.5133,115.473 14.0133,114.473 14.5,113.5 Z"/></g>
<g><path style="opacity:1" fill="#3a2620" d="M 96.5,120.5 C 97.1667,121.833 97.8333,123.167 98.5,124.5C 97.8423,125.398 97.1757,126.398 96.5,127.5C 95.086,126.535 94.2526,125.535 94,124.5C 91.6084,124.391 89.1084,124.558 86.5,125C 88.9166,123.327 88.9166,121.494 86.5,119.5C 87.5,118.833 88.5,118.167 89.5,117.5C 87.2573,116.526 84.924,116.192 82.5,116.5C 82.335,113.15 82.5017,109.817 83,106.5C 83.414,106.043 83.914,105.709 84.5,105.5C 88.6316,110.52 92.6316,115.52 96.5,120.5 Z"/></g>
<g><path style="opacity:1" fill="#9c9333" d="M 63.5,115.5 C 63.6399,117.124 62.9733,118.29 61.5,119C 62.3802,120.356 62.7135,121.856 62.5,123.5C 61.448,123.351 60.448,123.517 59.5,124C 60.8333,124.333 62.1667,124.667 63.5,125C 62.8095,126.067 62.3095,127.234 62,128.5C 61.6667,128.167 61.3333,127.833 61,127.5C 60.5045,129.473 60.3379,131.473 60.5,133.5C 57.858,133.488 56.5246,134.821 56.5,137.5C 55.5041,137.414 54.6708,137.748 54,138.5C 52.3644,136.45 50.1977,135.45 47.5,135.5C 47.4068,132.213 47.4068,128.88 47.5,125.5C 50.3164,122.514 51.6497,118.848 51.5,114.5C 55.7618,113.807 56.0952,112.974 52.5,112C 54.0762,111.56 55.4096,110.727 56.5,109.5C 58.0046,112.131 58.6713,111.797 58.5,108.5C 57.448,108.649 56.448,108.483 55.5,108C 57.63,106.739 59.7967,106.239 62,106.5C 62.3114,107.742 61.8114,108.742 60.5,109.5C 61.8905,109.109 62.8905,109.942 63.5,112C 62.2089,113.292 62.2089,114.458 63.5,115.5 Z"/></g>
<g><path style="opacity:0.008" fill="#dcdad8" d="M 78.5,123.5 C 78.573,125.027 77.9063,126.027 76.5,126.5C 76.427,124.973 77.0937,123.973 78.5,123.5 Z"/></g>
<g><path style="opacity:1" fill="#372623" d="M 156.5,118.5 C 157.29,119.401 158.29,120.068 159.5,120.5C 159.56,121.043 159.893,121.376 160.5,121.5C 161.62,120.167 162.953,119.667 164.5,120C 165.264,122.069 165.764,124.236 166,126.5C 167.707,125.056 169.54,123.723 171.5,122.5C 172.183,122.863 172.85,123.196 173.5,123.5C 173.5,124.167 173.5,124.833 173.5,125.5C 172.833,125.833 172.167,126.167 171.5,126.5C 168.135,127.176 165.469,128.842 163.5,131.5C 163.158,132.338 162.492,132.672 161.5,132.5C 160.833,132.5 160.167,132.5 159.5,132.5C 159.174,129.689 158.341,127.022 157,124.5C 153.812,126.387 150.312,127.72 146.5,128.5C 144.678,132.102 143.678,132.102 143.5,128.5C 140.455,128.342 137.621,129.009 135,130.5C 134.667,130.167 134.333,129.833 134,129.5C 132.698,130.085 131.531,130.751 130.5,131.5C 129.761,131.631 129.094,131.464 128.5,131C 129.381,130.292 130.047,129.458 130.5,128.5C 130.55,125.848 131.55,124.848 133.5,125.5C 135.115,124.846 136.782,124.346 138.5,124C 139.313,122.197 140.48,120.697 142,119.5C 143.63,120.547 145.296,121.547 147,122.5C 148.389,118.728 149.389,118.728 150,122.5C 151.885,120.705 154.052,119.372 156.5,118.5 Z"/></g>
<g><path style="opacity:0.004" fill="#e8e7e4" d="M 173.5,125.5 C 173.5,126.833 172.833,127.5 171.5,127.5C 171.5,127.167 171.5,126.833 171.5,126.5C 172.167,126.167 172.833,125.833 173.5,125.5 Z"/></g>
<g><path style="opacity:1" fill="#966e51" d="M 24.5,119.5 C 25.5903,121.437 26.9236,123.27 28.5,125C 26.8876,125.72 25.3876,125.554 24,124.5C 21.5397,125.755 20.373,127.755 20.5,130.5C 18.0848,129.018 17.4181,127.018 18.5,124.5C 17.3864,123.224 16.3864,123.224 15.5,124.5C 14.596,123.791 14.2627,122.791 14.5,121.5C 16.1788,121.715 17.1788,121.048 17.5,119.5C 18.7382,120.412 20.0715,120.579 21.5,120C 20.8333,119.667 20.1667,119.333 19.5,119C 20.3477,116.329 20.681,113.829 20.5,111.5C 21.8333,112.5 23.1667,113.5 24.5,114.5C 23.2651,116.316 23.2651,117.983 24.5,119.5 Z"/></g>
<g><path style="opacity:1" fill="#9a7c73" d="M 30.5,123.5 C 33.0165,127.498 31.8499,128.831 27,127.5C 24.6258,130.263 22.7925,133.263 21.5,136.5C 20.8505,134.565 20.5172,132.565 20.5,130.5C 20.373,127.755 21.5397,125.755 24,124.5C 25.3876,125.554 26.8876,125.72 28.5,125C 26.9236,123.27 25.5903,121.437 24.5,119.5C 24.3505,118.448 24.5172,117.448 25,116.5C 27.4536,118.441 29.287,120.775 30.5,123.5 Z"/></g>
<g><path style="opacity:1" fill="#796b67" d="M 171.5,126.5 C 171.5,126.833 171.5,127.167 171.5,127.5C 169.151,129.341 166.485,130.674 163.5,131.5C 165.469,128.842 168.135,127.176 171.5,126.5 Z"/></g>
<g><path style="opacity:1" fill="#31201c" d="M 82.5,116.5 C 84.924,116.192 87.2573,116.526 89.5,117.5C 88.5,118.167 87.5,118.833 86.5,119.5C 88.9166,121.494 88.9166,123.327 86.5,125C 89.1084,124.558 91.6084,124.391 94,124.5C 94.2526,125.535 95.086,126.535 96.5,127.5C 97.1757,126.398 97.8423,125.398 98.5,124.5C 99.1667,125.833 100.167,126.833 101.5,127.5C 101.893,129.284 102.559,130.95 103.5,132.5C 103.5,133.5 103.5,134.5 103.5,135.5C 102.596,134.791 102.263,133.791 102.5,132.5C 101.041,132.433 99.7079,132.766 98.5,133.5C 95.6354,133.945 93.1354,133.278 91,131.5C 90.6667,131.833 90.3333,132.167 90,132.5C 89.2276,131.151 88.0609,130.318 86.5,130C 86.8333,129.667 87.1667,129.333 87.5,129C 85.9061,126.001 84.2395,123.168 82.5,120.5C 82.0825,119.778 81.4158,119.278 80.5,119C 80.7284,118.601 81.0618,118.435 81.5,118.5C 82.3382,118.158 82.6716,117.492 82.5,116.5 Z"/></g>
<g><path style="opacity:0.075" fill="#eeeae8" d="M 5.5,114.5 C 5.83333,114.5 6.16667,114.5 6.5,114.5C 6.33064,120.024 7.66398,125.024 10.5,129.5C 10.8925,131.284 11.5592,132.95 12.5,134.5C 12.8333,135.833 13.1667,137.167 13.5,138.5C 8.02917,131.531 5.3625,123.531 5.5,114.5 Z"/></g>
<g><path style="opacity:1" fill="#6d5653" d="M 33.5,114.5 C 36.348,115.772 39.348,116.605 42.5,117C 43.056,117.383 43.3893,117.883 43.5,118.5C 43.5569,119.609 43.8902,120.609 44.5,121.5C 43.5178,122.141 42.5178,122.807 41.5,123.5C 40.3044,123.154 40.3044,122.654 41.5,122C 40.2068,121.51 38.8734,121.343 37.5,121.5C 37.804,124.522 38.304,127.522 39,130.5C 40.0495,129.483 41.2161,129.316 42.5,130C 40.641,134.526 37.4744,137.692 33,139.5C 33.3052,137.557 33.3052,135.557 33,133.5C 31.5,135.833 30,138.167 28.5,140.5C 28.8333,141.167 29.1667,141.833 29.5,142.5C 28.2839,143.096 26.9506,143.263 25.5,143C 24.6634,144.011 24.33,145.178 24.5,146.5C 23.8333,146.5 23.5,146.167 23.5,145.5C 23.5674,144.041 23.2341,142.708 22.5,141.5C 22.3713,139.784 22.038,138.117 21.5,136.5C 22.7925,133.263 24.6258,130.263 27,127.5C 31.8499,128.831 33.0165,127.498 30.5,123.5C 31.4131,120.7 33.4131,119.367 36.5,119.5C 36.2785,117.336 35.2785,115.67 33.5,114.5 Z"/></g>
<g><path style="opacity:1" fill="#7c741f" d="M 69.5,114.5 C 68.2696,118.508 67.9363,122.508 68.5,126.5C 66.9974,127.052 65.3307,127.052 63.5,126.5C 63.4332,128.401 63.7665,130.234 64.5,132C 63.095,132.207 62.095,133.373 61.5,135.5C 59.7162,135.893 58.0495,136.559 56.5,137.5C 56.5246,134.821 57.858,133.488 60.5,133.5C 60.3379,131.473 60.5045,129.473 61,127.5C 61.3333,127.833 61.6667,128.167 62,128.5C 62.3095,127.234 62.8095,126.067 63.5,125C 62.1667,124.667 60.8333,124.333 59.5,124C 60.448,123.517 61.448,123.351 62.5,123.5C 62.7135,121.856 62.3802,120.356 61.5,119C 62.9733,118.29 63.6399,117.124 63.5,115.5C 65.5884,114.564 66.5884,113.231 66.5,111.5C 67.3081,111.808 67.9747,112.308 68.5,113C 67.2881,114.107 67.6214,114.607 69.5,114.5 Z"/></g>
<g><path style="opacity:0.008" fill="#e1dfde" d="M 72.5,131.5 C 72.0269,132.906 71.0269,133.573 69.5,133.5C 69.9731,132.094 70.9731,131.427 72.5,131.5 Z"/></g>
<g><path style="opacity:1" fill="#251816" d="M 82.5,120.5 C 84.2395,123.168 85.9061,126.001 87.5,129C 87.1667,129.333 86.8333,129.667 86.5,130C 88.0609,130.318 89.2276,131.151 90,132.5C 90.3333,132.167 90.6667,131.833 91,131.5C 93.1354,133.278 95.6354,133.945 98.5,133.5C 100.331,136.216 102.997,137.716 106.5,138C 107.711,139.113 107.711,140.28 106.5,141.5C 100.872,142.495 95.2055,142.829 89.5,142.5C 86.7938,142.425 84.1272,142.092 81.5,141.5C 81.8936,134.504 82.2269,127.504 82.5,120.5 Z"/></g>
<g><path style="opacity:1" fill="#3e2f2c" d="M 127.5,135.5 C 127.938,135.435 128.272,135.601 128.5,136C 126.671,136.273 125.171,137.107 124,138.5C 121.797,134.366 118.964,133.699 115.5,136.5C 114.105,135.185 113.105,135.519 112.5,137.5C 113.165,139.101 113.499,140.601 113.5,142C 111.618,142.198 109.952,142.698 108.5,143.5C 102.317,144.676 95.9834,144.676 89.5,143.5C 89.5,143.167 89.5,142.833 89.5,142.5C 95.2055,142.829 100.872,142.495 106.5,141.5C 107.711,140.28 107.711,139.113 106.5,138C 102.997,137.716 100.331,136.216 98.5,133.5C 99.7079,132.766 101.041,132.433 102.5,132.5C 102.263,133.791 102.596,134.791 103.5,135.5C 106.096,134.735 108.763,134.401 111.5,134.5C 111.281,133.325 111.614,132.325 112.5,131.5C 113.716,130.998 114.883,130.665 116,130.5C 119.793,132.314 123.626,133.981 127.5,135.5 Z"/></g>
<g><path style="opacity:1" fill="#372420" d="M 127.5,128.5 C 128.5,128.5 129.5,128.5 130.5,128.5C 130.047,129.458 129.381,130.292 128.5,131C 129.094,131.464 129.761,131.631 130.5,131.5C 128.771,132.236 127.771,133.57 127.5,135.5C 123.626,133.981 119.793,132.314 116,130.5C 114.883,130.665 113.716,130.998 112.5,131.5C 111.614,132.325 111.281,133.325 111.5,134.5C 108.763,134.401 106.096,134.735 103.5,135.5C 103.5,134.5 103.5,133.5 103.5,132.5C 104.117,132.611 104.617,132.944 105,133.5C 106.675,131.468 108.342,129.468 110,127.5C 112.798,128.138 115.465,127.471 118,125.5C 118.582,128.668 119.582,129.001 121,126.5C 121.308,127.308 121.808,127.975 122.5,128.5C 124.188,128.542 125.854,128.542 127.5,128.5 Z"/></g>
<g><path style="opacity:1" fill="#7a5642" d="M 20.5,130.5 C 20.5172,132.565 20.8505,134.565 21.5,136.5C 22.038,138.117 22.3713,139.784 22.5,141.5C 21.2058,140.71 20.0391,139.71 19,138.5C 16.5318,134.225 14.3651,129.892 12.5,125.5C 14.1959,127.129 15.1959,126.796 15.5,124.5C 16.3864,123.224 17.3864,123.224 18.5,124.5C 17.4181,127.018 18.0848,129.018 20.5,130.5 Z"/></g>
<g><path style="opacity:0.082" fill="#bcb5b3" d="M 159.5,132.5 C 160.167,132.5 160.833,132.5 161.5,132.5C 160.22,133.931 158.553,134.598 156.5,134.5C 157.29,133.599 158.29,132.932 159.5,132.5 Z"/></g>
<g><path style="opacity:1" fill="#3b2d2a" d="M 159.5,132.5 C 158.29,132.932 157.29,133.599 156.5,134.5C 155.71,135.401 154.71,136.068 153.5,136.5C 151.326,136.75 149.659,137.75 148.5,139.5C 145.155,141.217 141.489,141.884 137.5,141.5C 135.369,142.314 133.036,142.814 130.5,143C 123.174,143.5 115.841,143.666 108.5,143.5C 109.952,142.698 111.618,142.198 113.5,142C 113.499,140.601 113.165,139.101 112.5,137.5C 113.105,135.519 114.105,135.185 115.5,136.5C 118.964,133.699 121.797,134.366 124,138.5C 125.171,137.107 126.671,136.273 128.5,136C 128.272,135.601 127.938,135.435 127.5,135.5C 127.771,133.57 128.771,132.236 130.5,131.5C 131.531,130.751 132.698,130.085 134,129.5C 134.333,129.833 134.667,130.167 135,130.5C 137.621,129.009 140.455,128.342 143.5,128.5C 143.678,132.102 144.678,132.102 146.5,128.5C 150.312,127.72 153.812,126.387 157,124.5C 158.341,127.022 159.174,129.689 159.5,132.5 Z"/></g>
<g><path style="opacity:1" fill="#231715" d="M 137.5,141.5 C 133.365,142.11 129.699,141.277 126.5,139C 130.419,137.46 133.919,135.293 137,132.5C 138.113,133.711 139.28,133.711 140.5,132.5C 142.453,133.761 144.453,134.927 146.5,136C 144.431,136.324 144.098,137.158 145.5,138.5C 142.724,139.515 140.057,140.515 137.5,141.5 Z"/></g>
<g><path style="opacity:1" fill="#746b23" d="M 47.5,135.5 C 50.1977,135.45 52.3644,136.45 54,138.5C 54.6708,137.748 55.5041,137.414 56.5,137.5C 58.0495,136.559 59.7162,135.893 61.5,135.5C 60.8505,137.435 60.5172,139.435 60.5,141.5C 56.169,140.985 54.669,142.652 56,146.5C 55.6667,146.167 55.3333,145.833 55,145.5C 53.9326,146.191 52.7659,146.691 51.5,147C 50.8839,149.179 49.7172,151.012 48,152.5C 47.8849,150.893 48.3849,149.393 49.5,148C 49.1639,146.97 48.4972,146.47 47.5,146.5C 46.2134,142.935 46.2134,139.268 47.5,135.5 Z"/></g>
<g><path style="opacity:0.008" fill="#e1dfdc" d="M 69.5,133.5 C 67.9059,136.764 65.5725,139.431 62.5,141.5C 62.5569,140.391 62.8902,139.391 63.5,138.5C 65.5,136.833 67.5,135.167 69.5,133.5 Z"/></g>
<g><path style="opacity:0.09" fill="#d4d2d1" d="M 153.5,136.5 C 152.341,138.25 150.674,139.25 148.5,139.5C 149.659,137.75 151.326,136.75 153.5,136.5 Z"/></g>
<g><path style="opacity:1" fill="#907f7d" d="M 12.5,134.5 C 15.5177,135.855 16.851,138.188 16.5,141.5C 14.8564,141.19 13.8564,140.19 13.5,138.5C 13.1667,137.167 12.8333,135.833 12.5,134.5 Z"/></g>
<g><path style="opacity:1" fill="#58391c" d="M 46.5,117.5 C 45.6129,123.145 45.4462,128.812 46,134.5C 46.3826,135.056 46.8826,135.389 47.5,135.5C 46.2134,139.268 46.2134,142.935 47.5,146.5C 47.6716,147.492 47.3382,148.158 46.5,148.5C 45.3995,147.395 44.7329,146.062 44.5,144.5C 43.6057,136.809 43.6057,129.142 44.5,121.5C 43.8902,120.609 43.5569,119.609 43.5,118.5C 44.1174,118.611 44.6174,118.944 45,119.5C 45.2784,118.584 45.7784,117.918 46.5,117.5 Z"/></g>
<g><path style="opacity:0.306" fill="#c1bdbb" d="M 82.5,120.5 C 82.2269,127.504 81.8936,134.504 81.5,141.5C 84.1272,142.092 86.7938,142.425 89.5,142.5C 89.5,142.833 89.5,143.167 89.5,143.5C 86.4552,143.492 83.4552,143.159 80.5,142.5C 81.1229,135.745 80.4563,129.412 78.5,123.5C 79.2623,121.738 80.5956,120.738 82.5,120.5 Z"/></g>
<g><path style="opacity:1" fill="#4b342d" d="M 12.5,125.5 C 14.3651,129.892 16.5318,134.225 19,138.5C 20.0391,139.71 21.2058,140.71 22.5,141.5C 23.2341,142.708 23.5674,144.041 23.5,145.5C 22.609,144.89 21.609,144.557 20.5,144.5C 19.7377,142.738 18.4044,141.738 16.5,141.5C 16.851,138.188 15.5177,135.855 12.5,134.5C 11.5592,132.95 10.8925,131.284 10.5,129.5C 10.6421,125.302 10.1421,121.302 9,117.5C 10.8448,119.867 12.0114,122.533 12.5,125.5 Z"/></g>
<g><path style="opacity:1" fill="#55403d" d="M 44.5,121.5 C 43.6057,129.142 43.6057,136.809 44.5,144.5C 43.596,143.791 43.2627,142.791 43.5,141.5C 42.5,141.5 41.5,141.5 40.5,141.5C 40.8437,146.255 38.8437,147.588 34.5,145.5C 33.2888,146.274 33.2888,147.107 34.5,148C 31.5337,148.895 28.8671,148.395 26.5,146.5C 25.913,147.233 25.913,148.233 26.5,149.5C 25.0937,149.027 24.427,148.027 24.5,146.5C 24.33,145.178 24.6634,144.011 25.5,143C 26.9506,143.263 28.2839,143.096 29.5,142.5C 29.1667,141.833 28.8333,141.167 28.5,140.5C 30,138.167 31.5,135.833 33,133.5C 33.3052,135.557 33.3052,137.557 33,139.5C 37.4744,137.692 40.641,134.526 42.5,130C 41.2161,129.316 40.0495,129.483 39,130.5C 38.304,127.522 37.804,124.522 37.5,121.5C 38.8734,121.343 40.2068,121.51 41.5,122C 40.3044,122.654 40.3044,123.154 41.5,123.5C 42.5178,122.807 43.5178,122.141 44.5,121.5 Z"/></g>
<g><path style="opacity:0.49" fill="#d3cfcd" d="M 16.5,141.5 C 18.4044,141.738 19.7377,142.738 20.5,144.5C 18.5956,144.262 17.2623,143.262 16.5,141.5 Z"/></g>
<g><path style="opacity:0.004" fill="#f0efe9" d="M 60.5,141.5 C 61.1667,141.5 61.8333,141.5 62.5,141.5C 62.0269,142.906 61.0269,143.573 59.5,143.5C 59.8333,142.833 60.1667,142.167 60.5,141.5 Z"/></g>
<g><path style="opacity:0.086" fill="#e9e8e5" d="M 59.5,143.5 C 59.573,145.027 58.9063,146.027 57.5,146.5C 57.427,144.973 58.0937,143.973 59.5,143.5 Z"/></g>
<g><path style="opacity:0.576" fill="#d7d3d2" d="M 20.5,144.5 C 21.609,144.557 22.609,144.89 23.5,145.5C 23.5,146.167 23.8333,146.5 24.5,146.5C 24.427,148.027 25.0937,149.027 26.5,149.5C 27.5,150.833 28.5,152.167 29.5,153.5C 25.5216,151.522 22.5216,148.522 20.5,144.5 Z"/></g>
<g><path style="opacity:1" fill="#655a2b" d="M 60.5,141.5 C 60.1667,142.167 59.8333,142.833 59.5,143.5C 58.0937,143.973 57.427,144.973 57.5,146.5C 55.8967,148.954 53.8967,150.954 51.5,152.5C 49.8333,153.833 48.1667,155.167 46.5,156.5C 46.5,153.833 46.5,151.167 46.5,148.5C 47.3382,148.158 47.6716,147.492 47.5,146.5C 48.4972,146.47 49.1639,146.97 49.5,148C 48.3849,149.393 47.8849,150.893 48,152.5C 49.7172,151.012 50.8839,149.179 51.5,147C 52.7659,146.691 53.9326,146.191 55,145.5C 55.3333,145.833 55.6667,146.167 56,146.5C 54.669,142.652 56.169,140.985 60.5,141.5 Z"/></g>
<g><path style="opacity:1" fill="#3e2c2a" d="M 44.5,144.5 C 44.7329,146.062 45.3995,147.395 46.5,148.5C 46.5,151.167 46.5,153.833 46.5,156.5C 46.5299,157.497 46.0299,158.164 45,158.5C 40.4526,157.261 35.9526,155.928 31.5,154.5C 30.5084,154.672 29.8417,154.338 29.5,153.5C 28.5,152.167 27.5,150.833 26.5,149.5C 25.913,148.233 25.913,147.233 26.5,146.5C 28.8671,148.395 31.5337,148.895 34.5,148C 33.2888,147.107 33.2888,146.274 34.5,145.5C 38.8437,147.588 40.8437,146.255 40.5,141.5C 41.5,141.5 42.5,141.5 43.5,141.5C 43.2627,142.791 43.596,143.791 44.5,144.5 Z"/></g>
<g><path style="opacity:0.671" fill="#c8c2bd" d="M 51.5,152.5 C 49.8317,155.181 48.1651,157.848 46.5,160.5C 42.5962,159.024 38.5962,157.857 34.5,157C 33.0577,156.623 32.0577,155.79 31.5,154.5C 35.9526,155.928 40.4526,157.261 45,158.5C 46.0299,158.164 46.5299,157.497 46.5,156.5C 48.1667,155.167 49.8333,153.833 51.5,152.5 Z"/></g>
</svg>